<?xml version="1.0" encoding="iso-8859-1"?><svg
  xmlns="http://www.w3.org/2000/svg"
  xmlns:xlink="http://www.w3.org/1999/xlink" version="1.1" id="Capa_1" x="0px" y="0px" viewBox="0 0 512 512" style="enable-background:new 0 0 512 512;" xml:space="preserve">
  <path fill="none" d="M0 0h512v512H0z"/>
  <path d="M512 73H0v365.714h512z" fill="red"/>
  <path d="M269.85 349.349c-3.213-2.786-7.108-8.427-7.053-13.865.287-4.055 3.068-6.41 4.865-1.461 2.54 5.463 7.988 14.5 15.5 9.2 3.28-2.407 3.229-5.952-1.268-5.545-5.554-.38-8.965-3.436-11.451-11.3-.452-4.327 1.348-4.219 3.859-1.435 3.229 3.7 9.654 9.3 16.742 6.3 3.939-1.651 5.051-5.057-.9-5.9-5.634.082-10.233-3.57-14.811-9.142-2.51-3.082 1.192-6.194 3.415-3.57 1.983 1.7 4.759 4.841 7.139 5.274a14.862 14.862 0 009.942-1.729c4.074-3.41 2.751-5.87-2.194-6.436-3.834.19-5.922 1.647-10.867-1.651-8.889-6.008-15.956-14.036-17.06-23.692-.725-6.351 2.69-8.274 5.529-7.543 7.722 1.986 12.773 16.416 18.116 24.343 1.749 2.285 3.356 2.322 4.493 1.618 2.143-1.837 3.855-3.348 6-5.4 0 0 15.718 2.824 24.277 5.614l-9.531 3.387c-3.609-1.993-7.964.156-7.964 3.613-3.415 2.361-3.14 5.13-1.667 7.8.449-1.86.833-4.277 3.53-4.6 3.85 1.592 8.336-.68 8.336-3.687l11.243-4.419 11.358 6.43c0 4.347 4.118 5.724 8.4 4.551a9.9 9.9 0 014 5.756c1.264-3.355 1-5.724-.98-7.37 1.136-4.338-4.942-8.509-9.648-5.731l-8.171-4.692 13.986-.392c1.623 2.874 7.49 3.032 9.2 0 1.463-.4 2.7-.656 5.551 1.464-.9-3.43-2.648-4.9-5.271-4.9-1.994-3.532-9.209-3.516-10.25.461l-14.566.4 8.643-6.153c3.226 1.9 7.753-.213 8.66-3.673 1.286-1.529 2.872-2.248 5.995-1.21-1.609-2.85-3.877-3.7-7.972-1.766-3.736-2.831-8.659.6-7.912 3.452l-11.5 7.824c-8.347-2.491-23.463-6.369-23.463-6.369 1.8-1.893 3.626-3.652 5.423-5.572.649-1.124-.343-2.434-1.72-2.706-13.488-2.784-21.21-8.221-25.889-22.04-1.957-5.788 2.274-7.517 3.728-3.977 2.011 4.924 4.231 10.3 10.287 14.472 2.089 1.461 8.306.268 4.629-3.22-3.809-3.138-5.448-4.487-7.325-12.116 0-3.865 3.939-5.6 6.137-1.893 2.351 7.6 2.591 10.871 6.848 15.768 3.225 3.705 7.431 6.195 9.519 6.139 3.757-.052 7.54-4.112 2.515-7.059-7.38-2.948-10.076-6.976-11.163-10.819-1.188-6.7.11-9.951 4.155-6.652 5.736 6.518 16.687 18.66 22.424 24.314 6.429 4.924 13.8 5.083 19.675.082 3.36-3.868 2.168-8.031-3.093-7.14-11.873 1-20.864-4.894-30.729-20.826-1.932-3.6-2.461-8.762 1.8-4.919 4.916 6.652 12.084 12.306 18.751 14.739 6.69 2.4 12.215 1.076 14.357-1.028 2.582-2.582 1.9-9.086-2.565-7.518a20.841 20.841 0 01-14.252-.461c-5.4-2.11-11-6.652-16.953-14.36-2.038-4.353-1.374-8.032 2.751-5.789 9.759 8.278 22.348 14.983 28.772 10.954 4.734-2.948 4.814-10.521-1.188-10.033-12.088 1.647-16.661-1.028-28.272-11.277-2.643-1.975-2.46-6.98 1.745-3.787 9.759 6.3 23.087 8.761 28.324 5.464 4.709-2.948 4.02-11.956-3.914-8.766-6.348 3.868-13.356 3.76-27.4-6.273-3.542-2.948-.9-6.79 2.008-5.139 11.294 6.437 27.744 9.194 32.026-3.894 1.666-5-1.348-7.923-5.765-4.462-9.7 8.978-20.707 4.569-26.866.052-1.764-1.04-5-6.3.684-5.325 14.705 3.354 29.25.433 31.9-9.98 1.534-3.38-1.484-9.358-6.851-4.353-7.059 6.977-14.545 7.219-23.958 7.166-4.789-1-4.84-6.276-.82-7.058 7.431.16 14.756-3.086 20.627-6.384 5.74-3.3 10.5-7.923 12.008-14.333.925-5.732-4.6-11.818-7.934-5.732-4.92 8.9-15.816 17.282-27.93 18.8-.631-1.055-2.219-3.761-4.176-3-3.557 1.379-7.795 3.225-12.158 5.3-9.406 4.466-13.326 6.619-12.2 14.336 1.179 8.053-5.029 13.141-10.156 11.736-4.472-1.2-6.939-5.243-6.138-12.25.642-5.583 6.247-12.336 12.563-15.877 4.089-2.288 10.262-3.54 17.693-5.191 4.522-.891 6.826-2.65 7.089-4.491a12.941 12.941 0 01-8.039 1.923c-2.34-.167-3.907-1.2-4.5-2.247 1.72-.35 4.84.056 7.642.056 3.728-.03 12.383-.865 14.679-6.113.714-3.462-1.561-4.084-3.677-1.867-2.274 2.4-3.211 4.551-7.774 5.355-2.776.488-5.554 1.055-9.125.191 2.011-2.389 5.208-4.834 7.934-4.383a5.146 5.146 0 013.043 2.464c.583-3.787-.452-8.061-10.58-6.276.161-2.866-5.871-4.111-9.493-4.055a29.112 29.112 0 00-9.308 2.728 65.748 65.748 0 01-15.182 2.978 76.346 76.346 0 007.114 5.3 23.682 23.682 0 00-10.444 8.114s5.74-.16 7.194.488c-6.006 1.755-8.7 2.81-11.877 6.056a25.417 25.417 0 013.491.786c.743.269.55.757-.051 1.215-1.294.987-6.639 7.2-8.2 8.683-1.56-1.487-6.906-7.7-8.2-8.683-.6-.459-.795-.947-.051-1.215a25.477 25.477 0 013.491-.786c-3.174-3.246-5.871-4.3-11.877-6.056 1.454-.648 7.194-.488 7.194-.488a23.691 23.691 0 00-10.445-8.114 76.127 76.127 0 007.114-5.3 65.7 65.7 0 01-15.182-2.978 29.116 29.116 0 00-9.307-2.728c-3.622-.056-9.654 1.189-9.493 4.054-10.128-1.785-11.163 2.49-10.58 6.277a5.143 5.143 0 013.043-2.463c2.726-.451 5.922 1.994 7.934 4.383-3.571.865-6.349.3-9.126-.19-4.563-.8-5.5-2.959-7.774-5.355-2.116-2.218-4.391-1.6-3.676 1.867 2.3 5.247 10.951 6.082 14.679 6.112 2.8 0 5.922-.406 7.642-.056-.59 1.051-2.158 2.079-4.5 2.247a12.94 12.94 0 01-8.039-1.923c.263 1.841 2.565 3.6 7.089 4.491 7.431 1.651 13.6 2.9 17.693 5.192 6.316 3.541 11.921 10.294 12.562 15.877.8 7.006-1.666 11.046-6.137 12.25-5.127 1.405-11.336-3.683-10.156-11.736 1.13-7.717-2.79-9.87-12.2-14.336-4.363-2.073-8.6-3.918-12.158-5.3-1.957-.76-3.546 1.946-4.176 3-12.114-1.514-23.01-9.9-27.93-18.8-3.331-6.085-8.859 0-7.934 5.732 1.509 6.41 6.268 11.035 12.008 14.333 5.871 3.3 13.2 6.544 20.627 6.384 4.019.783 3.968 6.056-.82 7.058-9.413.052-16.9-.19-23.958-7.166-5.368-5.005-8.385.973-6.851 4.353 2.646 10.412 17.19 13.334 31.895 9.98 5.684-.977 2.449 4.286.684 5.326-6.158 4.517-17.16 8.926-26.865-.052-4.417-3.462-7.431-.541-5.765 4.461 4.282 13.088 20.732 10.331 32.026 3.894 2.908-1.651 5.551 2.192 2.008 5.139-14.042 10.033-21.049 10.141-27.4 6.273-7.933-3.191-8.622 5.817-3.914 8.766 5.237 3.3 18.564.839 28.324-5.464 4.206-3.194 4.388 1.811 1.745 3.787-11.61 10.249-16.184 12.924-28.272 11.277-6-.488-5.922 7.084-1.188 10.033 6.425 4.028 19.012-2.676 28.771-10.954 4.126-2.243 4.789 1.435 2.752 5.788-5.951 7.707-11.557 12.25-16.953 14.36a20.845 20.845 0 01-14.252.462c-4.469-1.569-5.148 4.936-2.566 7.518 2.144 2.1 7.667 3.432 14.358 1.028 6.665-2.434 13.834-8.088 18.75-14.739 4.26-3.843 3.731 1.323 1.8 4.919-9.865 15.932-18.855 21.828-30.729 20.826-5.262-.891-6.454 3.272-3.094 7.14 5.871 5 13.247 4.842 19.675-.082 5.736-5.653 16.687-17.8 22.423-24.314 4.045-3.3 5.343-.052 4.155 6.652-1.087 3.843-3.783 7.871-11.163 10.819-5.026 2.948-1.243 7.006 2.515 7.058 2.088.056 6.294-2.433 9.519-6.138 4.256-4.9 4.5-8.169 6.848-15.768 2.2-3.7 6.137-1.972 6.137 1.893-1.877 7.629-3.517 8.978-7.325 12.116-3.678 3.489 2.54 4.681 4.628 3.221 6.057-4.167 8.276-9.548 10.287-14.472 1.455-3.54 5.686-1.811 3.729 3.977-4.679 13.819-12.4 19.256-25.889 22.041-1.378.272-2.369 1.581-1.721 2.706 1.8 1.919 3.623 3.678 5.423 5.572 0 0-15.117 3.878-23.464 6.369l-11.5-7.824c.747-2.85-4.176-6.283-7.912-3.453-4.1-1.934-6.362-1.083-7.971 1.767 3.122-1.038 4.708-.319 5.995 1.21.906 3.461 5.433 5.578 8.66 3.673l8.643 6.154-14.566-.405c-1.042-3.976-8.257-3.993-10.252-.461-2.623 0-4.373 1.467-5.271 4.9 2.853-2.12 4.089-1.865 5.552-1.464 1.712 3.032 7.579 2.874 9.2 0l13.986.392-8.171 4.692c-4.706-2.778-10.784 1.393-9.648 5.731-1.98 1.646-2.244 4.015-.98 7.37a9.9 9.9 0 014-5.756c4.284 1.174 8.4-.2 8.4-4.551l11.358-6.43 11.243 4.419c0 3.007 4.485 5.279 8.335 3.687 2.7.321 3.081 2.738 3.53 4.6 1.473-2.671 1.748-5.44-1.667-7.8 0-3.457-4.355-5.606-7.964-3.613l-9.531-3.387c8.559-2.79 24.278-5.614 24.278-5.614 2.143 2.053 3.854 3.564 6 5.4 1.137.7 2.744.667 4.493-1.618 5.343-7.927 10.394-22.357 18.116-24.343 2.839-.731 6.254 1.192 5.529 7.543-1.1 9.656-8.171 17.684-17.059 23.691-4.945 3.3-7.034 1.841-10.867 1.651-4.946.566-6.268 3.027-2.194 6.437a14.862 14.862 0 009.942 1.729c2.38-.433 5.157-3.57 7.139-5.274 2.223-2.624 5.926.488 3.415 3.57-4.578 5.571-9.177 9.224-14.811 9.142-5.951.839-4.839 4.245-.9 5.9 7.089 3 13.513-2.6 16.742-6.3 2.511-2.784 4.311-2.892 3.859 1.435-2.486 7.868-5.9 10.923-11.451 11.3-4.5-.407-4.548 3.138-1.268 5.545 7.508 5.3 12.956-3.735 15.5-9.2 1.8-4.949 4.577-2.594 4.865 1.461.055 5.438-3.84 11.079-7.053 13.865s13.849 20.5 13.849 20.5 17.062-17.713 13.85-20.5zm22.864-200.589c-2.656 0-4.3.93-4.3 2.058 0 1.146 1.64 2.08 4.3 2.08 2.64 0 4.316-1.019 4.316-2.167 0-1.128-1.677-1.973-4.316-1.973zm-73.427 0c2.656 0 4.3.93 4.3 2.058 0 1.146-1.641 2.08-4.3 2.08-2.64 0-4.316-1.019-4.316-2.167 0-1.128 1.677-1.973 4.316-1.973z" fill-rule="evenodd"/>
</svg>
