<svg width="512" height="512" viewBox="0 0 512 512" fill="none" xmlns="http://www.w3.org/2000/svg">
<path d="M0 85H512V426.33H0V85Z" fill="#000066"/>
<path d="M0 85V108.428L322.578 294.55H363.182V271.122L40.604 85H0ZM363.182 85V108.427L40.604 294.549H0V271.122L322.578 85H363.182Z" fill="white"/>
<path d="M151.326 85V294.549H211.856V85H151.326V85ZM0 154.85V224.699H363.182V154.85H0Z" fill="white"/>
<path d="M0 168.819V210.73H363.182V168.819H0ZM163.432 85V294.549H199.75V85H163.432ZM0 294.549L121.061 224.699H148.13L27.0688 294.549H0ZM0 85L121.061 154.85H93.992L0 100.619V85ZM215.053 154.85L336.114 85H363.182L242.122 154.85H215.053ZM363.182 294.549L242.122 224.699H269.19L363.182 278.93V294.549Z" fill="#CC0000"/>
<path fill-rule="evenodd" clip-rule="evenodd" d="M371 333.849C371 333.849 368.698 339.261 367.382 339.261C366.065 339.261 361.294 336.921 361.294 336.921C361.294 336.921 357.839 341.893 356.03 342.186C354.219 342.478 349.448 341.454 349.448 341.454C349.448 341.454 344.842 341.454 344.677 340.869C344.512 340.284 344.842 339.114 344.842 339.114C344.842 339.114 338.26 343.793 336.779 343.502C335.299 343.209 330.363 337.651 330.363 337.651L329.539 340.583L320.161 340.29L311.934 335.608C311.934 335.608 307.327 342.335 307.163 342.189C306.999 342.043 299.101 343.798 299.101 343.798L298.607 342.482L293.343 339.703C293.343 339.703 297.455 334.584 297.455 334.438C297.455 334.292 295.481 333.707 295.481 333.707L292.52 335.901L286.432 339.41L280.345 336.924L282.977 332.537L283.307 329.319L288.078 322.885L346.484 272.431L375.276 319.668L370.999 333.853L371 333.849Z" fill="#6A4C2D" stroke="black" stroke-width="0.86059"/>
<path fill-rule="evenodd" clip-rule="evenodd" d="M412.495 336.909L427.699 336.424L421.227 333.582L479.155 331.642L470.969 328.87L463.718 320.138L433.702 318.128C433.702 318.128 431.44 316.603 427.776 317.366C427.62 315.287 424.813 312.584 424.813 312.584L406.335 311.337L394.796 318.336L402.593 336.077L412.495 336.909H412.495Z" fill="white" stroke="black" stroke-width="0.86059"/>
<path fill-rule="evenodd" clip-rule="evenodd" d="M353.341 185.581L354.872 180.954C354.872 180.954 357.552 176.939 357.552 175.169C357.552 173.401 359.542 171.29 359.542 171.29C359.542 171.29 365.667 169.725 366.968 173.06C373.552 164.213 381.284 172.651 381.284 172.651L383.428 170.406L387.792 165.643C387.792 165.643 393.993 170.814 394.07 171.699C394.147 172.584 395.141 171.971 395.141 171.971L401.879 171.495C401.879 171.495 405.076 173.719 404.405 177.96C406.779 179.204 408.922 186.533 408.922 186.533L353.341 185.581V185.581Z" fill="url(#paint0_linear)" stroke="black" stroke-width="0.86059"/>
<path fill-rule="evenodd" clip-rule="evenodd" d="M412.502 240.634C413.662 239.999 417.324 238.967 416.878 234.205C416.43 229.443 411.787 228.888 409.198 229.046C406.609 229.205 404.287 231.189 404.287 231.189L395.714 226.348C395.714 226.348 400.001 202.298 404.554 200.791C408.879 198.02 409.644 196.823 409.644 196.187C409.644 195.551 408.037 193.965 408.037 193.965L380.089 191.028L353.658 193.806C353.658 193.806 351.605 196.584 351.872 197.695C352.139 198.807 352.23 199.997 356.962 203.251C362.198 206.831 365.802 227.379 365.802 227.379C365.802 227.379 358.39 230.634 357.945 230.237C357.498 229.84 355.266 229.443 354.105 229.602C352.945 229.761 349.105 231.507 349.105 236.031C349.105 240.555 352.945 243.175 352.945 243.175C352.945 243.175 378.214 240.555 381.964 246.746C385.625 239.285 409.644 241.905 412.502 240.634V240.634Z" fill="#656263" stroke="black" stroke-width="0.86059"/>
<path fill-rule="evenodd" clip-rule="evenodd" d="M439.724 215.635C439.724 215.635 440.004 213.025 442.102 211.782C444.199 210.539 458.183 209.917 461.54 211.782C464.897 213.646 466.154 222.845 466.154 222.845C466.154 222.845 468.252 226.077 468.392 228.439C468.532 230.8 468.811 232.416 468.811 232.416C468.811 232.416 479.999 245.344 480.139 257.029C481.398 264.984 481.118 286.239 477.622 294.319C477.482 304.387 472.727 310.976 472.727 310.976C472.727 310.976 473.846 312.716 473.706 314.58C473.566 316.445 472.447 318.186 472.447 318.186L488.809 325.395L482.795 323.406C482.795 323.406 488.949 328.005 488.809 327.881C488.669 327.756 481.957 325.022 481.957 325.022L486.013 328.627C485.872 328.502 476.083 324.649 476.083 324.649C476.083 324.649 480.698 328.503 480.419 328.378C480.139 328.253 473.007 325.27 473.007 325.27C473.007 325.27 477.482 329.497 477.342 329.248C477.203 329 470.909 326.762 470.909 326.762L471.189 328.875C471.189 328.875 466.154 328.627 466.154 325.27C463.638 324.027 461.959 322.287 461.959 322.287L450.353 320.547L437.207 285.618L440.284 226.573L441.123 223.59L439.724 215.635V215.635Z" fill="black" stroke="black" stroke-opacity="0.979" stroke-width="1.07574" stroke-linejoin="round"/>
<path fill-rule="evenodd" clip-rule="evenodd" d="M430.939 404.323C430.939 404.323 424.206 391.73 420.849 391.553C417.819 386.42 431.377 344.455 457.601 342.062C472.017 343.118 458.786 356.836 449.306 352.615C450.49 356.308 455.23 361.584 455.23 361.584C455.23 361.584 436.468 368.795 430.939 404.323V404.323Z" fill="#FFBB00" stroke="black" stroke-width="1.13942"/>
<path fill-rule="evenodd" clip-rule="evenodd" d="M340.666 406.16C340.666 406.16 346.239 391.829 349.623 391.653C353.006 391.475 340.666 343.887 313.798 343.533C299.27 344.594 312.604 358.393 322.158 354.147C320.964 357.863 316.187 363.17 316.187 363.17C316.187 363.17 335.094 370.423 340.667 406.16H340.666Z" fill="#FFBB00" stroke="black" stroke-width="0.86059"/>
<path fill-rule="evenodd" clip-rule="evenodd" d="M365.314 316.646C365.25 316.531 358.646 318.488 362.918 324.876C363.242 322.401 366.221 320.905 366.221 320.905C366.221 320.905 361.689 325.682 366.479 329.71C367.062 325.913 369.782 324.704 369.782 324.704C369.782 324.704 366.415 333.509 369.846 335.292C370.234 331.781 372.76 330.228 372.76 330.228C372.76 330.228 369.717 338.112 372.436 339.897C372.76 336.904 375.026 335.58 375.026 335.58C375.026 335.58 373.666 343.752 377.227 344.328C377.292 341.451 379.882 338.63 379.882 338.63C379.882 338.63 378.716 345.306 384.284 345.594C384.349 343.062 385.385 340.184 385.385 340.184C385.385 340.184 387.91 347.263 391.6 346.112C391.536 344.04 391.664 340.126 391.6 340.126C391.536 340.126 393.931 346.86 398.333 345.594C397.686 343.695 398.593 341.45 398.593 341.45C398.593 341.45 400.923 345.652 405.132 344.27C405.844 343.004 404.937 340.529 404.937 340.529C404.937 340.529 411.088 346.17 412.965 342.774C414.843 339.379 408.045 338.228 408.045 338.228H412.642C412.642 338.228 411.153 334.775 404.938 334.026C407.074 333.163 409.275 333.796 409.275 333.796C409.275 333.796 407.979 329.48 401.635 329.02C404.095 328.271 406.815 328.789 406.815 328.789C406.815 328.789 405.973 324.704 398.981 323.553C400.082 322.459 403.059 322.804 403.059 322.804C403.059 322.804 400.275 318.949 397.103 319.179C393.931 319.408 365.25 316.589 365.314 316.647V316.646Z" fill="#00713D" stroke="black" stroke-width="0.86059"/>
<path d="M376.97 337.594C376.97 337.594 378.459 338.975 378.394 339.263M393.603 337.423C393.603 337.423 396.128 338.516 396.063 339.495L393.603 337.423ZM395.098 335.642C395.098 335.642 398.335 337.656 398.27 339.152L395.098 335.642ZM397.941 334.602C397.941 334.602 400.53 336.04 400.661 338.285L397.941 334.602ZM402.278 335.525C402.278 335.525 403.573 338 403.119 338.461L402.278 335.525ZM404.874 336.847C405.068 338.803 404.678 338.976 404.678 338.976L404.874 336.847ZM372.949 324.473C372.949 324.473 375.992 326.2 375.733 328.617L372.949 324.473ZM372.756 326.548C372.756 326.548 374.181 327.756 373.858 328.562L372.756 326.548ZM376.515 324.535C376.515 324.535 378.522 327.01 377.875 328.736L376.515 324.535ZM379.944 326.144C379.944 326.144 380.851 327.698 380.008 328.561L379.944 326.144ZM381.562 326.89C381.562 326.89 382.663 328.444 381.691 328.962L381.562 326.89ZM380.336 332.013C380.336 332.013 383.184 332.589 383.574 334.488L380.336 332.013ZM382.016 330.287C382.016 330.287 384.994 330.459 385.319 333.28L382.016 330.287ZM385.968 329.308C386.033 329.308 387.975 332.358 387.651 333.336L385.968 329.308ZM389.789 329.595C389.789 329.595 390.567 332.531 389.983 333.451L389.789 329.595ZM392.247 330.746C392.247 330.804 392.311 334.141 392.311 334.141L392.247 330.746ZM388.495 326.144C388.495 326.144 390.372 326.777 390.243 328.389L388.495 326.144ZM390.237 324.645C390.237 324.645 392.632 325.854 392.373 328.155L390.237 324.645ZM393.025 323.672C393.025 323.672 395.097 325.859 394.32 328.276L393.025 323.672ZM396.647 324.186C396.647 324.186 395.869 326.89 396.193 327.984L396.647 324.186ZM398.85 326.028C398.85 326.028 397.49 326.949 398.202 328.1L398.85 326.028ZM387.07 336.56C387.07 336.56 387.523 338.631 387.07 338.976V336.56ZM384.088 335.354C384.088 335.354 385.578 337.656 385.059 338.807L384.088 335.354ZM380.915 335.237C380.915 335.237 382.598 336.965 382.534 338.345L380.915 335.237ZM378.326 335.581C378.326 335.581 379.88 336.904 379.75 337.652L378.326 335.581Z" stroke="#3EC26D" stroke-width="1.07574" stroke-linecap="round"/>
<path fill-rule="evenodd" clip-rule="evenodd" d="M344.763 243.118L366.177 242.779C366.177 242.779 380.326 242.779 381.855 246.857C384.531 241.419 396.768 241.759 396.768 241.759L418.946 241.08L419.33 288.665C414.995 307.133 399.954 320.163 383.384 325.714C363.628 320.049 351.136 305.207 347.057 288.325L344.763 243.118V243.118Z" fill="white" stroke="black" stroke-width="0.86059"/>
<path fill-rule="evenodd" clip-rule="evenodd" d="M352.392 242.941L383.584 316.83L411.763 241.332C403.022 241.833 384.266 240.109 381.937 247.199C378.331 240.853 358.601 243.411 352.391 242.942L352.392 242.941Z" fill="#006B00" stroke="black" stroke-width="0.86059"/>
<path fill-rule="evenodd" clip-rule="evenodd" d="M373.624 282.945C374.823 283.503 374.79 262.892 376.366 262.252C376.816 260.546 377.042 259.799 377.605 257.986C376.254 255.853 370.176 255.959 367.925 257.773C368.938 260.652 369.388 261.612 369.388 261.612C372.428 265.986 371.823 283.41 373.624 282.946V282.945Z" fill="#FFC900" stroke="#006B00" stroke-width="0.592947" stroke-linecap="round"/>
<path fill-rule="evenodd" clip-rule="evenodd" d="M365.266 123.643C365.266 123.643 367.47 121.417 367.57 120.882C367.67 120.348 377.585 119.992 383.495 110.199C386.801 105.035 383.495 108.062 383.495 108.062L383.295 105.569C383.295 105.569 387.401 102.097 385.899 100.227C384.397 98.3572 384.898 102.631 382.494 102.542C380.09 102.453 381.392 97.9128 381.392 97.9128C381.392 97.9128 381.192 97.378 380.49 97.1114C379.489 97.2003 379.789 98.8024 378.888 98.9809C377.986 99.1587 377.185 95.2412 377.185 95.2412C377.185 95.2412 375.683 93.4606 374.381 99.0698C375.082 105.035 379.389 103.877 379.389 107.795C379.389 111.712 375.582 114.739 374.481 114.828C373.378 114.917 373.779 111.534 373.779 111.534C373.779 111.534 373.179 109.931 372.778 109.931C372.377 109.931 374.981 109.576 374.581 105.124C373.679 99.7816 372.978 106.37 371.376 106.103C369.774 105.835 370.976 101.206 371.576 100.672C372.176 100.138 370.874 97.9121 367.369 103.61C367.069 106.37 366.668 102.898 365.967 103.076C364.766 105.302 364.965 106.904 366.668 108.952C369.172 111 370.775 113.048 370.674 114.116C370.574 115.184 369.273 117.588 367.47 117.588C365.666 117.588 367.57 114.65 367.47 113.671C367.369 112.691 364.365 109.13 364.365 109.13C364.365 109.13 362.261 106.103 362.461 106.014C362.661 105.925 362.262 105.48 361.259 108.596C360.257 111.711 359.056 106.548 359.056 106.548C359.056 106.548 357.654 110.376 360.658 112.692C358.354 112.424 358.154 113.225 358.154 113.225C358.154 114.294 361.259 114.739 361.66 116.608C362.061 118.478 358.455 119.547 358.455 119.547C358.455 119.547 359.957 121.416 364.164 117.766C364.265 120.081 362.561 121.683 362.561 121.683C363.964 122.247 365.066 122.188 365.266 123.642V123.643Z" fill="#CDAD56" stroke="black" stroke-width="1.07574" stroke-linejoin="round"/>
<path fill-rule="evenodd" clip-rule="evenodd" d="M351.524 123.643C351.524 123.643 349.652 121.172 349.567 120.686C349.482 120.2 340.359 121.3 336.041 111.41C333.233 106.711 336.041 109.466 336.041 109.466L336.212 107.197C336.212 107.197 333.225 103.949 334.5 102.248C335.776 100.546 335.251 104.435 336.892 104.442C338.933 104.362 337.828 100.23 337.828 100.23C337.828 100.23 337.997 99.7441 338.593 99.5009C339.443 99.5819 339.789 102.02 340.556 102.182C341.321 102.343 342.902 99.3131 343.404 98.6902C344.105 98.6006 344.078 96.1793 345.185 101.283C344.589 106.711 339.529 105.658 339.529 109.222C339.529 112.787 342.761 115.541 343.697 115.622C344.633 115.703 344.293 112.625 344.293 112.625C344.293 112.625 344.802 111.167 345.142 111.167C345.483 111.167 342.17 111.733 342.51 107.682C343.276 103.89 344.973 107.926 346.334 107.683C347.696 107.44 346.174 103.672 346.565 103.097C346.655 102.522 348.662 100.052 349.437 105.503C349.693 108.015 351.233 103.342 351.829 103.504C352.85 105.53 351.377 108.234 349.932 110.097C347.805 111.96 346.844 114.002 346.93 114.975C347.014 115.947 347.519 117.154 349.051 117.154C350.582 117.154 349.567 115.46 349.652 114.569C349.737 113.678 352.289 110.793 352.289 110.793C352.789 110.081 352.373 108.752 352.904 108.137C353.735 108.144 354.076 107.116 354.926 109.951C355.777 112.787 356.797 108.088 356.797 108.088C356.797 108.088 357.988 111.572 355.437 113.677C357.393 113.435 357.562 114.164 357.562 114.164C357.562 115.136 356.629 115.541 356.289 117.243C355.948 118.944 357.307 119.917 357.307 119.917C357.307 119.917 356.032 121.617 352.459 118.295C352.373 120.402 353.82 121.86 353.82 121.86C352.629 122.374 351.694 122.319 351.524 123.643V123.643Z" fill="#CDAD56" stroke="black" stroke-width="0.945788" stroke-linejoin="round"/>
<path fill-rule="evenodd" clip-rule="evenodd" d="M406.56 253.963C404.694 252.458 404.473 253.772 403.555 253.436C403.106 253.268 402.753 252.893 402.362 252.553C402.022 252.243 401.618 252.114 401.168 251.946C400.999 252.392 400.829 252.837 400.659 253.283C400.49 253.729 401.131 254.467 401.118 255.136C400.99 256.13 400.534 256.953 399.131 257.293C399.531 256.589 399.758 256.554 399.636 255.694C399.576 255.265 398.223 254.502 398.39 254.096C398.638 253.441 399.061 252.685 398.748 252.033C398.172 252.382 397.42 252.199 396.843 252.412C396.36 252.604 396.327 253.404 395.654 253.736C394.964 254.024 393.442 253.881 392.171 253.24C392.947 252.717 393.59 253.07 394.366 252.546C394.754 252.284 394.737 251.164 395.125 250.901C395.513 250.639 396.443 250.361 396.831 250.098C396.482 249.745 396.501 249.185 396.152 248.832C395.802 248.478 394.254 248.555 393.904 248.2C393.206 247.494 393.339 246.563 392.64 245.856C394.448 246.433 394.186 247.216 394.64 247.157C395.496 246.792 396.351 246.719 396.8 246.887C397.25 247.055 398.104 248.048 398.554 248.217C398.723 247.771 398.97 247.205 399.141 246.759C399.31 246.313 398.378 245.541 398.548 245.095C398.887 244.205 399.73 243.417 400.07 242.524C400.191 243.385 400.352 244.107 400.474 244.967C400.534 245.397 401.485 245.62 401.546 246.05C401.606 246.48 401.05 247.477 401.11 247.907C401.63 247.815 402.381 247.878 402.899 247.786C403.418 247.693 403.763 246.621 404.282 246.529C405.32 246.345 406.068 246.401 407.126 246.578C406.35 247.222 405.746 247.179 405.26 247.771C404.871 248.033 405.412 248.897 404.288 249.502C403.866 249.719 402.757 249.458 402.369 249.72L403.417 250.781C403.766 251.135 405.334 251.299 405.683 251.652C406.382 252.36 406.752 253.204 406.56 253.963V253.963ZM358.594 254.691C360.46 253.185 360.682 254.499 361.6 254.164C362.048 253.995 362.402 253.621 362.793 253.281C363.133 252.971 363.537 252.842 363.986 252.673L364.495 254.01C364.665 254.456 364.022 255.194 364.038 255.863C364.164 256.857 364.62 257.68 366.023 258.022C365.623 257.317 365.397 257.282 365.518 256.422C365.579 255.992 366.931 255.23 366.765 254.822C366.517 254.17 366.094 253.414 366.406 252.76C366.983 253.11 367.734 252.927 368.311 253.139C368.795 253.331 368.828 254.131 369.502 254.465C370.191 254.752 371.714 254.61 372.983 253.968C372.206 253.445 371.565 253.798 370.789 253.274C370.4 253.012 370.418 251.891 370.03 251.629C369.641 251.367 368.711 251.088 368.322 250.826C368.672 250.473 368.654 249.913 369.002 249.559C369.353 249.206 370.901 249.282 371.25 248.929C371.949 248.222 371.816 247.291 372.514 246.584C370.706 247.161 370.969 247.944 370.514 247.884C369.658 247.52 368.804 247.447 368.354 247.615C367.906 247.783 367.05 248.776 366.601 248.944C366.43 248.499 366.183 247.932 366.014 247.487C365.844 247.041 366.777 246.269 366.606 245.823C366.267 244.932 365.425 244.144 365.086 243.253C364.963 244.113 364.803 244.835 364.682 245.695C364.62 246.124 363.669 246.349 363.608 246.778C363.547 247.208 364.105 248.205 364.045 248.635C363.525 248.542 362.774 248.605 362.255 248.514C361.737 248.422 361.391 247.349 360.871 247.257C359.834 247.073 359.087 247.129 358.029 247.307C358.805 247.95 359.408 247.906 359.895 248.499C360.283 248.761 359.743 249.624 360.866 250.23C361.288 250.448 362.398 250.187 362.786 250.448C362.436 250.802 362.087 251.155 361.738 251.509C361.389 251.862 359.821 252.027 359.471 252.38C358.773 253.087 358.403 253.932 358.594 254.691V254.691Z" fill="#FFC900"/>
<path fill-rule="evenodd" clip-rule="evenodd" d="M404.888 258.723C403.198 259.896 392.28 262.35 392.168 270.776C392.056 279.202 394.082 281.123 392.056 281.336C388.116 281.336 387.554 271.949 387.666 267.789C387.778 263.63 387.89 264.269 387.89 264.269C387.89 264.269 390.592 264.909 390.367 266.936C390.142 268.963 393.068 261.923 392.056 260.003C393.856 261.603 396.22 260.963 396.22 260.856C396.22 260.75 394.87 259.47 394.307 258.51C393.745 257.55 396.333 259.043 396.333 259.043C396.333 259.043 396.445 257.443 394.194 257.55C391.268 257.55 394.645 256.696 394.645 256.696C394.645 256.696 396.333 258.083 397.458 256.59C396.22 255.416 394.42 254.776 394.42 254.776C394.42 254.776 392.844 252.11 390.706 251.576C388.229 251.043 388.566 252.536 385.753 252.323C385.19 253.283 385.19 253.39 386.316 253.71C384.402 254.883 385.415 257.23 385.415 257.23C385.415 257.23 388.454 256.056 388.342 257.976C388.23 259.896 386.54 259.576 385.415 258.403C384.402 257.87 384.065 258.936 384.065 258.936L385.641 260.43C385.641 260.43 382.601 260.323 381.813 262.136C383.502 262.03 384.402 262.456 384.402 262.456C384.402 262.456 380.913 263.843 380.574 264.589C380.238 265.336 380.125 263.736 380.012 263.736C379.9 263.736 376.636 262.67 376.636 262.67L375.509 267.282C375.509 267.282 377.762 269.283 378.999 268.643C380.238 268.003 382.489 266.083 383.839 266.616C379.9 269.283 375.961 273.123 373.822 273.656C373.259 273.229 371.346 271.523 370.558 272.376C369.77 273.229 370.332 274.296 371.346 274.189C372.358 274.083 368.082 275.043 368.982 276.643C369.882 278.243 369.77 278.135 370.558 277.709C371.346 277.283 369.882 277.176 372.809 276.429C375.735 275.683 375.622 274.935 375.622 274.935C375.622 274.935 375.06 276.109 373.485 276.429C371.909 276.749 370.67 276.749 371.008 277.175C371.346 277.602 372.02 278.349 371.796 278.776C371.57 279.202 375.06 276.536 375.961 278.669C378.325 278.563 379.9 276.003 378.774 274.509C378.887 276.109 380.012 276.643 379.337 277.389C378.662 278.136 384.627 274.935 381.7 273.016C382.49 274.616 382.601 275.896 382.601 275.896C382.601 275.896 383.951 275.789 384.29 275.363C384.627 274.935 383.614 276.536 384.065 276.856C384.514 277.176 386.653 278.989 385.753 280.269C385.19 279.523 385.078 278.349 384.402 278.456C383.726 278.563 380.913 280.376 379.225 280.483C377.537 280.589 381.25 286.029 381.25 286.029C381.25 286.029 378.662 285.709 378.325 285.923C377.986 286.136 376.298 284.003 375.961 285.283C375.398 286.883 376.523 286.243 376.523 286.243C376.523 286.243 375.06 285.603 374.272 286.349C373.485 287.096 372.696 287.843 373.259 288.162C373.822 288.482 376.299 288.482 376.635 288.375C376.971 288.269 373.822 288.589 373.597 288.909C373.371 289.229 372.922 290.402 373.597 290.829C374.272 291.255 375.961 290.615 376.073 290.295C376.186 289.975 376.298 291.469 376.298 291.469C376.298 291.469 379.225 291.682 379.225 289.015C379.225 286.349 379.45 290.935 379.45 290.935C379.45 290.935 382.376 291.362 382.489 288.695C382.602 286.029 382.826 290.509 382.826 290.509C382.826 290.509 384.74 289.975 384.74 289.549C384.74 289.122 384.627 294.882 383.277 296.482C381.138 295.202 379.787 297.335 379.787 297.335C379.787 297.335 379.899 300.428 379.675 301.175C379.45 301.922 381.138 300.748 381.251 300.428C381.363 300.108 383.389 299.255 383.502 299.042L384.177 297.762C384.177 297.762 383.726 299.255 382.939 299.468C382.152 299.682 381.363 300.428 381.7 301.068C382.038 301.708 383.277 302.135 383.726 302.775C384.177 303.415 385.753 299.042 385.753 299.042L385.865 300.002C385.865 300.002 387.891 299.575 388.116 298.722C388.342 297.868 385.978 297.122 387.891 295.735C389.804 294.348 387.891 297.015 387.891 297.015C387.891 297.015 388.566 299.042 389.017 299.042C389.467 299.042 390.592 295.202 389.467 294.242C388.342 293.282 391.155 295.415 391.155 295.415C391.155 295.415 392.731 291.469 391.043 290.935C389.355 290.402 388.566 290.189 388.566 290.189C388.566 290.189 389.467 289.122 389.017 289.015C388.566 288.909 391.38 291.362 391.83 290.722C392.281 290.082 392.956 288.162 389.693 287.095C386.428 286.029 389.58 283.042 389.58 283.042C389.58 283.042 391.606 285.175 393.069 284.002C394.532 282.829 392.957 282.829 392.957 282.829C392.957 282.829 397.121 280.483 397.233 279.309C396.446 279.202 395.094 279.415 395.094 279.415C395.094 279.415 397.458 278.029 396.896 275.789C395.995 276.962 394.757 276.963 394.757 276.963C394.757 276.963 396.783 275.149 396.445 273.443C395.207 274.296 395.32 274.935 394.532 274.723C393.744 274.51 392.394 267.789 395.545 267.363C398.697 266.936 397.008 270.669 397.121 270.669C397.233 270.669 401.849 268.963 397.121 266.189C398.246 265.869 400.61 267.789 400.61 267.789C400.61 267.789 399.597 263.096 394.532 265.976C395.77 264.803 396.558 264.056 397.571 264.269C398.584 264.483 402.187 264.163 402.187 263.203C401.286 262.563 399.372 263.523 398.358 263.203C397.346 262.883 405.562 262.35 404.887 258.723H404.888Z" fill="#FFC900" stroke="#006B00" stroke-width="0.592947" stroke-linecap="round" stroke-linejoin="round"/>
<path d="M380.799 270.773C380.799 270.773 384.963 271.093 387.664 267.146M369.204 261.492C369.204 261.492 373.706 259.252 375.957 262.025L369.204 261.492ZM377.758 266.293C377.646 266.293 376.183 267.679 375.845 267.679L377.758 266.293Z" stroke="#006B00" stroke-width="0.593102" stroke-linecap="round"/>
<path d="M385.298 269.599C385.298 269.599 385.636 271.732 386.311 271.732C386.987 271.732 385.186 272.266 384.51 271.839C385.298 272.799 385.749 274.506 384.51 275.146" stroke="#006B00" stroke-width="0.593102" stroke-linecap="round"/>
<path fill-rule="evenodd" clip-rule="evenodd" d="M383.159 296.48C383.159 296.48 381.696 297.973 379.895 298.08Z" fill="#E80000"/>
<path d="M383.159 296.48C383.159 296.48 381.696 297.973 379.895 298.08" stroke="#006B00" stroke-width="0.593102" stroke-linecap="round"/>
<path d="M380.233 264.801C380.233 264.801 378.432 266.295 379.107 268.321M384.85 289.652C384.85 289.652 383.949 285.385 384.512 284.318C384.85 282.932 386.313 282.398 387.439 280.585L384.85 289.652ZM384.398 286.558C384.398 286.558 383.272 289.118 378.32 288.265L384.398 286.558ZM385.751 280.158C385.751 280.158 386.088 283.571 381.586 282.291L385.751 280.158Z" stroke="#006B00" stroke-width="0.593102" stroke-linecap="round"/>
<path fill-rule="evenodd" clip-rule="evenodd" d="M386.986 261.067C386.986 261.067 389.35 260.213 389.799 259.787C390.25 259.36 391.038 258.507 391.263 257.867C391.487 257.227 389.687 256.267 390.587 254.88C391.15 254.24 391.938 254.133 393.289 254.88C394.639 255.627 392.05 252.533 390.7 252.427C389.35 252.32 388.449 253.28 388.111 253.067C387.774 252.853 388.223 253.92 387.661 253.92C387.098 253.92 388.786 254.773 388.674 255.307C388.562 255.84 390.474 257.653 390.362 258.08C390.25 258.507 387.549 260.96 386.986 261.067Z" fill="#006B00"/>
<path fill-rule="evenodd" clip-rule="evenodd" d="M388.677 254.027C389.704 253.805 389.869 254.051 389.69 254.881C389.209 254.651 389.032 254.456 388.677 254.027Z" fill="#FFC900" stroke="#FFC900" stroke-width="0.593102" stroke-linecap="round" stroke-linejoin="round"/>
<path fill-rule="evenodd" clip-rule="evenodd" d="M381.486 301.549C381.486 301.549 381.106 303.782 382.034 303.969C381.988 303.105 382.231 302.514 382.459 302.284C382.261 302.197 381.532 301.564 381.486 301.549ZM379.398 298.801C378.547 298.685 377.108 299.355 377.521 300.163C378.213 299.599 378.854 300.21 379.338 299.634C379.486 299.476 379.444 299.003 379.398 298.801V298.801ZM379.391 297.205C379.391 297.205 378.049 297.003 377.862 297.884C378.789 297.772 379.066 297.678 379.373 297.863C379.462 297.674 379.376 297.249 379.391 297.205Z" fill="#E80000" stroke="#006B00" stroke-width="0.593102" stroke-linejoin="round"/>
<path fill-rule="evenodd" clip-rule="evenodd" d="M373.704 284.624C373.704 284.624 374.509 284.913 374.737 285.691C375.375 285.316 375.68 283.659 373.704 284.624ZM371.711 286.523C371.742 286.509 373.398 285.558 373.566 286.466C373.216 286.797 373.064 287.013 372.79 287.085C372.578 287.085 372.152 286.466 371.711 286.523V286.523ZM371.546 289.606C371.576 289.592 372.61 288.728 373.005 289.304C373.4 289.88 372.686 289.851 372.686 289.851C372.686 289.851 372.321 289.693 371.546 289.606ZM370.086 272.438C370.071 272.438 368.764 271.963 368.217 272.827C369.083 272.928 369.387 273.216 369.782 273.504C369.676 273.144 369.494 272.597 370.086 272.438ZM367.55 278.904C367.55 278.904 367.61 277.449 368.34 276.859C368.75 277.075 368.872 277.42 369.145 277.853C368.598 277.968 367.869 277.996 367.55 278.904V278.904ZM371.042 277.866C371.042 277.866 369.598 278.5 370.069 279.191C370.541 278.716 371.057 278.86 371.057 278.845C371.057 278.831 371.057 277.88 371.042 277.866Z" fill="#E80000" stroke="#006B00" stroke-width="0.474482" stroke-linejoin="round"/>
<path fill-rule="evenodd" clip-rule="evenodd" d="M368.961 263.951C368.444 264.499 369.599 265.694 370.815 265.522C371.119 264.226 369.265 263.548 368.961 263.951Z" fill="#FFC900" stroke="#006B00" stroke-width="0.474482" stroke-linejoin="round"/>
<path fill-rule="evenodd" clip-rule="evenodd" d="M370.299 262.959C370.299 262.959 370.527 263.982 371.576 263.708C371.409 262.916 370.679 262.325 370.679 262.325C370.634 262.556 370.831 262.916 370.299 262.959V262.959ZM370.998 265.927C370.998 265.927 371.575 266.518 372.715 265.308C372.199 265.452 371.287 265.02 371.287 265.02C371.287 265.02 371.287 265.855 370.998 265.927Z" fill="#E80000" stroke="#006B00" stroke-width="0.474482" stroke-linejoin="round"/>
<path fill-rule="evenodd" clip-rule="evenodd" d="M368.895 261.604C368.378 262.151 369.109 262.914 370.326 262.741C370.63 261.446 369.199 261.201 368.895 261.604Z" fill="#FFC900" stroke="#006B00" stroke-width="0.474482" stroke-linejoin="round"/>
<path fill-rule="evenodd" clip-rule="evenodd" d="M369.383 256.484C369.383 256.484 374.227 255.253 376.798 257.099C379.369 258.945 379.369 257.275 379.369 257.275C379.369 257.275 383.126 258.505 384.214 258.242C385.302 257.978 383.423 258.33 384.906 257.539C386.389 256.748 381.94 257.715 381.545 256.045C380.852 254.99 381.643 253.671 380.062 254.111C378.974 252.88 380.753 252.002 380.358 250.683C379.271 251.386 378.677 250.419 377.787 252.178C375.711 251.826 377.49 249.277 375.216 249.013C375.216 250.859 373.535 250.947 373.436 252.001C372.448 252.617 368.097 254.902 369.383 256.484V256.484Z" fill="url(#paint1_linear)"/>
<path fill-rule="evenodd" clip-rule="evenodd" d="M313.619 396.6C316.763 395.926 333.795 399.942 340.362 406.201C338.969 395.056 335.494 386.517 335.494 386.517C335.494 386.517 325.345 383.943 323.951 385.182C321.907 387.095 315.77 392.826 313.619 396.6ZM308.427 345.122C307.233 345.298 306.038 346.006 304.845 347.774C303.451 350.782 302.456 358.39 300.466 360.159C298.475 361.928 296.684 362.104 296.684 363.697C296.684 365.289 296.884 369.004 302.257 370.419C307.631 370.596 316.189 362.812 316.189 362.812C316.189 362.812 320.568 358.567 322.359 353.967C312.01 357.152 304.646 348.659 308.427 345.121V345.122Z" fill="#C01500" stroke="black" stroke-width="0.86059"/>
<path fill-rule="evenodd" clip-rule="evenodd" d="M458.106 394.825C454.986 394.155 437.758 398.148 431.242 404.371C432.625 393.29 436.072 384.801 436.072 384.801C437.275 384.509 446.034 382.243 447.418 383.474C449.446 385.376 455.973 391.074 458.106 394.825H458.106ZM462.932 343.646C464.118 343.822 464.537 345.207 465.504 346.964C466.886 349.954 468.31 354.31 470.286 356.069C472.261 357.828 474.038 360.433 474.038 362.016C474.038 363.598 473.622 365.738 468.29 367.144C462.957 367.32 455.23 361.234 455.23 361.234C455.23 361.234 450.886 357.012 449.108 352.44C459.378 355.607 466.029 347.455 462.932 343.646V343.646Z" fill="#C01500" stroke="black" stroke-width="1.13942"/>
<path fill-rule="evenodd" clip-rule="evenodd" d="M302.456 386.876C302.456 386.876 313.203 393.422 313.403 396.429C342.262 358.393 415.903 346.54 457.899 393.776C463.472 387.23 469.244 385.107 469.244 385.107C425.058 333.8 337.085 340.17 302.455 386.876H302.456Z" fill="#FFBB00" stroke="black" stroke-width="0.86059"/>
<path fill-rule="evenodd" clip-rule="evenodd" d="M411.944 241.343L416.151 241.255L408.639 249.712L417.655 259.06L399.925 278.914L416.652 296.81C414.816 300.816 412.679 304.467 409.841 307.761L400.226 298.323L417.654 279.003L403.331 264.581L411.944 241.344V241.343ZM351.848 243.033L347.341 243.122L355.754 251.223L346.839 261.106L365.369 279.001L350.044 297.252C351.881 301.259 354.519 305.71 357.356 309.004L366.471 298.765L347.741 280.247L361.463 264.756L351.847 243.032L351.848 243.033Z" fill="#1E5AA6" stroke="black" stroke-width="0.86059"/>
<path fill-rule="evenodd" clip-rule="evenodd" d="M372.68 291.109L366.069 298.944L389.708 323.25C393.881 321.38 397.153 319.243 400.725 316.661L388.405 304.018L393.413 290.931L400.625 298.321L378.089 323.873C374.317 322.448 370.143 320.223 366.37 317.462L378.289 304.019L372.681 291.109H372.68ZM365.369 278.912L369.676 283.72L366.872 277.221L365.369 278.913V278.912Z" fill="#1E5AA6" stroke="black" stroke-width="0.86059"/>
<path fill-rule="evenodd" clip-rule="evenodd" d="M396.219 283.165C396.314 283.076 399.695 279.069 399.695 279.069L398.38 277.467L396.22 283.165H396.219Z" fill="#1E5AA6" stroke="black" stroke-width="1.11102"/>
<path d="M315.112 388.511L317.705 385.806L318.835 386.662L315.02 390.641L308.193 385.468L309.414 384.195L315.112 388.511Z" fill="black"/>
<path d="M319.837 380.651L317.32 382.92L319.045 384.432L321.999 381.77L323.065 382.705L318.8 386.549L312.36 380.902L316.616 377.066L317.691 378.008L314.746 380.663L316.28 382.008L318.798 379.74L319.837 380.651Z" fill="black"/>
<path d="M325.127 376.019C325.639 376.624 325.97 377.23 326.12 377.836C326.269 378.443 326.228 379.01 325.995 379.539C325.766 380.065 325.366 380.509 324.796 380.871C324.232 381.229 323.626 381.426 322.976 381.461C322.326 381.497 321.688 381.365 321.061 381.066C320.432 380.764 319.866 380.319 319.362 379.73L319.104 379.426C318.592 378.82 318.261 378.212 318.112 377.601C317.964 376.985 318.006 376.415 318.238 375.892C318.471 375.363 318.87 374.919 319.437 374.559C320.004 374.199 320.612 374.004 321.261 373.973C321.911 373.937 322.551 374.074 323.182 374.384C323.813 374.688 324.384 375.142 324.894 375.745L325.127 376.019ZM323.47 376.642C322.925 375.997 322.382 375.588 321.843 375.415C321.304 375.242 320.797 375.306 320.324 375.607C319.854 375.905 319.632 376.301 319.657 376.796C319.681 377.287 319.962 377.854 320.5 378.495L320.754 378.794C321.285 379.422 321.825 379.828 322.374 380.012C322.923 380.197 323.437 380.137 323.917 379.832C324.387 379.534 324.608 379.138 324.579 378.646C324.547 378.151 324.262 377.583 323.724 376.942L323.47 376.642Z" fill="black"/>
<path d="M331.203 368.182L328.954 369.533L333.274 375.213L331.761 376.122L327.441 370.442L325.222 371.776L324.357 370.638L330.337 367.044L331.203 368.182Z" fill="black"/>
<path d="M336.917 369.434L333.798 370.759L334.885 372.78L338.545 371.225L339.216 372.473L333.932 374.719L329.875 367.175L335.149 364.934L335.826 366.193L332.176 367.744L333.143 369.542L336.262 368.217L336.917 369.434Z" fill="black"/>
<path d="M340.687 367.796L339.379 368.313L340.783 371.117L339.142 371.766L335.307 364.107L338.267 362.936C339.208 362.564 340.035 362.479 340.747 362.68C341.459 362.882 342 363.35 342.369 364.087C342.63 364.61 342.73 365.093 342.669 365.538C342.609 365.977 342.392 366.395 342.018 366.791L345.308 369.239L345.345 369.313L343.584 370.009L340.687 367.796ZM338.739 367.035L340.063 366.511C340.475 366.348 340.744 366.122 340.87 365.833C340.995 365.54 340.968 365.217 340.791 364.862C340.61 364.501 340.36 364.26 340.041 364.138C339.726 364.015 339.348 364.04 338.907 364.215L337.588 364.736L338.739 367.035Z" fill="black"/>
<path d="M346.387 365.148L345.063 365.621L346.356 368.478L344.694 369.072L341.163 361.268L344.16 360.197C345.113 359.856 345.941 359.799 346.644 360.025C347.346 360.251 347.868 360.739 348.207 361.489C348.448 362.022 348.529 362.51 348.451 362.953C348.375 363.391 348.142 363.802 347.754 364.186L350.942 366.751L350.976 366.826L349.192 367.464L346.387 365.148ZM344.474 364.319L345.815 363.839C346.232 363.69 346.509 363.473 346.646 363.187C346.781 362.898 346.767 362.573 346.604 362.212C346.437 361.844 346.197 361.594 345.884 361.461C345.574 361.327 345.196 361.339 344.749 361.499L343.414 361.976L344.474 364.319Z" fill="black"/>
<path d="M376.028 358.422L374.626 358.526L374.919 361.647L373.158 361.778L372.359 353.25L375.533 353.015C376.542 352.94 377.342 353.107 377.931 353.515C378.521 353.924 378.854 354.538 378.931 355.358C378.986 355.94 378.904 356.435 378.686 356.845C378.472 357.25 378.12 357.587 377.629 357.855L379.804 361.203L379.811 361.285L377.922 361.425L376.028 358.422ZM374.492 357.102L375.912 356.997C376.354 356.964 376.686 356.828 376.908 356.587C377.129 356.343 377.221 356.023 377.184 355.629C377.146 355.227 377.001 354.919 376.749 354.706C376.501 354.492 376.14 354.403 375.666 354.438L374.253 354.543L374.492 357.102Z" fill="black"/>
<path d="M393.244 357.914L391.838 357.895L391.785 361.031L390.021 361.007L390.165 352.443L393.347 352.485C394.359 352.498 395.135 352.734 395.677 353.193C396.218 353.651 396.482 354.292 396.468 355.115C396.459 355.7 396.323 356.186 396.061 356.575C395.804 356.96 395.416 357.264 394.899 357.489L396.693 361.013L396.691 361.096L394.797 361.071L393.244 357.914ZM391.862 356.466L393.286 356.485C393.729 356.491 394.074 356.384 394.321 356.163C394.568 355.939 394.695 355.629 394.701 355.233C394.708 354.829 394.598 354.51 394.37 354.275C394.147 354.041 393.798 353.921 393.323 353.914L391.905 353.896L391.862 356.466Z" fill="black"/>
<path d="M428.307 366.198L427.053 365.563L425.362 368.204L423.787 367.407L428.406 360.194L431.246 361.63C432.149 362.087 432.723 362.629 432.97 363.257C433.217 363.885 433.118 364.545 432.674 365.239C432.359 365.731 431.982 366.085 431.543 366.3C431.11 366.514 430.601 366.602 430.018 366.565L429.784 370.35L429.74 370.419L428.05 369.564L428.307 366.198ZM427.823 364.359L429.094 365.002C429.489 365.202 429.856 365.263 430.193 365.184C430.533 365.103 430.81 364.895 431.023 364.561C431.241 364.221 431.309 363.901 431.227 363.602C431.149 363.304 430.898 363.049 430.475 362.834L429.21 362.194L427.823 364.359Z" fill="black"/>
<path d="M446.613 375.897L443.89 373.88L442.321 375.554L445.517 377.921L444.547 378.955L439.933 375.538L445.791 369.289L450.396 372.699L449.418 373.742L446.232 371.382L444.835 372.872L447.559 374.888L446.613 375.897Z" fill="black"/>
<path d="M438.318 368.756C438.17 369.562 437.897 370.246 437.5 370.806C437.102 371.365 436.606 371.766 436.011 372.007C435.42 372.248 434.781 372.311 434.092 372.196C433.411 372.083 432.834 371.818 432.36 371.402C431.885 370.987 431.557 370.453 431.375 369.8C431.193 369.143 431.172 368.42 431.313 367.632L431.387 367.227C431.535 366.42 431.81 365.736 432.212 365.173C432.619 364.607 433.117 364.205 433.707 363.967C434.302 363.726 434.942 363.663 435.626 363.777C436.311 363.892 436.888 364.158 437.358 364.577C437.832 364.992 438.157 365.532 438.334 366.196C438.515 366.856 438.532 367.588 438.385 368.39L438.318 368.756ZM436.671 368.098C436.828 367.239 436.794 366.561 436.567 366.063C436.341 365.565 435.942 365.268 435.37 365.173C434.802 365.078 434.323 365.226 433.933 365.617C433.544 366.004 433.27 366.623 433.11 367.474L433.037 367.874C432.883 368.71 432.918 369.385 433.142 369.898C433.366 370.411 433.767 370.715 434.346 370.812C434.914 370.907 435.391 370.759 435.777 370.367C436.164 369.972 436.437 369.348 436.597 368.498L436.671 368.098Z" fill="black"/>
<path d="M385.167 355.644C385.292 356.433 385.261 357.143 385.074 357.774C384.888 358.405 384.558 358.915 384.086 359.306C383.617 359.697 383.046 359.935 382.372 360.023C381.705 360.109 381.085 360.027 380.511 359.775C379.938 359.524 379.461 359.122 379.081 358.568C378.7 358.011 378.447 357.347 378.322 356.577L378.259 356.18C378.135 355.391 378.167 354.679 378.357 354.044C378.55 353.405 378.88 352.892 379.35 352.506C379.822 352.115 380.393 351.876 381.064 351.789C381.734 351.702 382.355 351.786 382.925 352.042C383.499 352.293 383.975 352.702 384.353 353.267C384.735 353.828 384.987 354.501 385.111 355.286L385.167 355.644ZM383.43 355.499C383.298 354.658 383.046 354.039 382.675 353.642C382.304 353.244 381.839 353.082 381.279 353.154C380.723 353.226 380.327 353.499 380.094 353.971C379.859 354.439 379.806 355.09 379.933 355.924L379.995 356.315C380.123 357.133 380.375 357.749 380.748 358.161C381.121 358.573 381.591 358.742 382.159 358.669C382.715 358.597 383.108 358.325 383.338 357.853C383.568 357.377 383.619 356.723 383.492 355.889L383.43 355.499Z" fill="black"/>
<path d="M354.663 363.408L351.723 364.374L351.842 366.187L350.059 366.773L349.798 357.869L351.352 357.358L357.688 364.266L355.905 364.852L354.663 363.408ZM351.627 362.905L353.661 362.236L351.407 359.612L351.627 362.905Z" fill="black"/>
<path d="M454.688 384.609L452.383 382.546L450.621 383.321L449.223 382.07L458.02 378.527L459.239 379.618L455.207 387.425L453.808 386.173L454.688 384.609ZM453.809 381.917L455.405 383.345L457.006 380.505L453.809 381.917Z" fill="black"/>
<path d="M405.614 360.568L402.568 360.024L401.599 361.642L399.752 361.312L404.779 353.517L406.389 353.805L407.657 362.723L405.81 362.393L405.614 360.568ZM403.352 358.713L405.46 359.089L405.107 355.773L403.352 358.713Z" fill="black"/>
<path d="M356.738 355.973L360.193 361.689L361.066 355.25L363.352 354.868L365.125 363.248L363.378 363.54L362.894 361.25L362.232 357.266L361.272 363.892L360.076 364.092L356.482 358.233L357.491 362.152L357.976 364.443L356.235 364.734L354.463 356.353L356.738 355.973Z" fill="black"/>
<path d="M368.844 359.252L369.195 362.25L367.437 362.412L366.442 353.905L369.769 353.597C370.409 353.538 370.985 353.603 371.497 353.791C372.012 353.98 372.426 354.278 372.739 354.687C373.05 355.091 373.239 355.568 373.303 356.117C373.4 356.951 373.19 357.635 372.673 358.172C372.159 358.703 371.396 359.016 370.385 359.11L368.844 359.252ZM368.678 357.832L370.248 357.687C370.712 357.644 371.053 357.502 371.27 357.262C371.49 357.021 371.577 356.698 371.529 356.293C371.48 355.876 371.318 355.55 371.042 355.316C370.766 355.082 370.41 354.981 369.976 355.013L368.365 355.162L368.678 357.832Z" fill="black"/>
<path d="M386.833 357.97L386.92 360.987L385.155 361.027L384.909 352.465L388.25 352.389C388.893 352.374 389.461 352.479 389.954 352.703C390.451 352.928 390.837 353.254 391.112 353.683C391.387 354.109 391.533 354.598 391.548 355.15C391.573 355.989 391.303 356.658 390.741 357.158C390.182 357.653 389.395 357.912 388.38 357.935L386.833 357.97ZM386.792 356.541L388.368 356.505C388.835 356.495 389.186 356.377 389.423 356.152C389.664 355.927 389.778 355.61 389.767 355.203C389.755 354.783 389.621 354.447 389.367 354.194C389.112 353.941 388.768 353.815 388.332 353.817L386.715 353.854L386.792 356.541Z" fill="black"/>
<path d="M421.509 363.178L419.889 365.724L418.312 364.932L422.911 357.705L425.897 359.207C426.471 359.496 426.913 359.849 427.221 360.266C427.532 360.684 427.689 361.136 427.69 361.622C427.693 362.104 427.546 362.578 427.249 363.045C426.798 363.753 426.185 364.182 425.409 364.334C424.638 364.483 423.799 364.33 422.892 363.874L421.509 363.178ZM422.277 361.972L423.685 362.681C424.102 362.89 424.478 362.957 424.814 362.881C425.152 362.807 425.431 362.598 425.65 362.254C425.875 361.9 425.947 361.558 425.865 361.229C425.784 360.899 425.55 360.633 425.166 360.431L423.72 359.704L422.277 361.972Z" fill="black"/>
<path d="M398.544 361.401L396.788 361.221L397.891 352.727L399.647 352.907L398.544 361.401Z" fill="black"/>
<path d="M464.019 386.192L462.107 384.396L456.646 388.989L455.359 387.78L460.821 383.187L458.934 381.415L460.028 380.495L465.113 385.272L464.019 386.192Z" fill="black"/>
<path d="M444.783 370.686L442.598 369.232L438.002 374.691L436.532 373.713L441.129 368.255L438.974 366.821L439.895 365.727L445.704 369.592L444.783 370.686Z" fill="black"/>
<path d="M411.525 354.92L411.699 361.374L415.771 356.031L418.013 356.618L415.319 364.749L413.606 364.301L414.342 362.078L415.784 358.286L411.54 363.76L410.367 363.453L410.142 356.815L409.044 360.691L408.307 362.913L406.6 362.466L409.294 354.336L411.525 354.92Z" fill="black"/>
<path d="M450.12 382.23C449.597 382.247 449.046 382.12 448.466 381.848C447.888 381.574 447.347 381.19 446.842 380.697C446.311 380.179 445.97 379.623 445.819 379.029C445.673 378.436 445.73 377.838 445.989 377.237C446.252 376.639 446.703 376.075 447.344 375.546L447.796 375.18C448.461 374.642 449.138 374.276 449.827 374.084C450.523 373.891 451.192 373.88 451.835 374.051C452.485 374.222 453.07 374.562 453.593 375.071C454.32 375.781 454.699 376.488 454.731 377.194C454.766 377.898 454.462 378.578 453.819 379.234L452.589 378.035C452.914 377.671 453.068 377.324 453.051 376.991C453.037 376.662 452.861 376.333 452.524 376.004C452.095 375.585 451.592 375.408 451.017 375.473C450.442 375.538 449.807 375.849 449.113 376.407L448.687 376.751C447.99 377.316 447.584 377.862 447.472 378.39C447.36 378.917 447.539 379.41 448.011 379.87C448.486 380.333 448.934 380.574 449.355 380.594L450.503 379.664L449.353 378.543L450.363 377.725L452.776 380.078L450.12 382.23Z" fill="black"/>
<path d="M446.622 216.112C446.622 216.112 456.906 214.354 467.684 225.868M446.024 216.289C446.024 216.289 450.176 213.125 453.143 213.037L446.024 216.289ZM446.622 215.848C446.721 215.761 471.442 212.685 472.233 211.981L446.622 215.848ZM446.719 216.026C446.818 215.938 474.407 213.916 474.407 213.916L446.719 216.026ZM446.622 216.112C446.622 216.112 475.99 214.881 477.77 216.2L446.622 216.112ZM446.519 216.026C446.519 216.026 475.295 216.202 475.789 216.817L446.519 216.026ZM446.622 216.026L474.31 218.047L446.622 216.026ZM446.326 216.203C446.425 216.203 474.508 218.401 477.277 221.565L446.326 216.203ZM478.754 226.044C478.655 225.957 469.162 215.936 446.221 216.112L478.754 226.044ZM446.326 216.289C446.326 216.289 462.246 217.256 467.29 222.178L446.326 216.289Z" stroke="#FFF700" stroke-width="0.86059" stroke-linecap="round"/>
<path fill-rule="evenodd" clip-rule="evenodd" d="M440.144 226.571C440.144 226.571 454.408 227.068 454.408 228.311C454.408 229.554 443.78 231.916 443.64 237.137C443.5 242.358 451.751 242.73 452.31 249.318C452.87 255.907 445.878 256.901 444.479 258.641C443.08 259.511 439.724 268.834 440.144 274.303C440.563 279.773 442.381 298.294 445.597 302.023C448.115 303.763 451.891 309.357 455.946 307.616C460.002 305.876 457.204 299.537 456.785 297.797C456.366 296.056 458.463 293.197 458.463 290.587C458.463 287.976 456.925 285.863 457.065 285.242C457.204 284.62 468.392 287.604 467.692 297.424C466.994 307.244 462.519 304.26 462.519 304.26C462.519 304.26 463.917 316.318 460.421 317.933C454.128 320.917 449.513 317.312 449.513 317.312L450.105 319.765L445.318 317.561C445.318 317.561 439.165 309.729 437.767 306.249C436.368 302.769 434.69 287.231 435.25 283.875C435.809 280.518 436.228 260.878 435.948 259.884C435.669 258.889 434.55 242.482 435.25 239.996C435.948 237.51 440.284 226.571 440.144 226.571V226.571Z" fill="url(#paint2_linear)" stroke="black" stroke-width="0.86059"/>
<path fill-rule="evenodd" clip-rule="evenodd" d="M424.763 223.339C424.763 223.339 434.692 214.763 440.426 215.757C443.362 215.757 440.566 217.621 440.566 217.621C440.566 217.621 445.599 217.995 446.299 219.983C446.438 220.853 443.922 221.102 443.922 221.102C443.922 221.102 446.019 221.475 446.159 223.091C446.299 224.708 424.903 223.464 424.763 223.339V223.339Z" fill="#FF7000" stroke="black" stroke-width="0.86059"/>
<path d="M436.089 220.358C436.089 220.358 443.921 220.11 443.921 221.105M425.321 222.966C425.321 222.966 435.949 221.723 440.425 217.745L425.321 222.966Z" stroke="black" stroke-width="0.86059"/>
<path fill-rule="evenodd" clip-rule="evenodd" d="M463.917 322.038C463.917 322.038 470.629 320.671 472.447 318.558C473.567 317.811 479.439 326.389 463.917 322.038Z" fill="white" stroke="black" stroke-width="1.07574" stroke-linejoin="round"/>
<path d="M449.796 257.775C449.796 257.775 444.482 259.391 443.364 264.115M462.099 272.689C462.099 272.689 462.939 277.288 460.561 280.395C459.302 281.638 455.526 283.752 455.526 285.243C455.526 286.735 456.925 288.724 456.646 290.464C456.366 292.205 454.268 293.945 454.408 295.436C454.408 296.928 456.785 304.883 456.506 305.008L462.099 272.689Z" stroke="white" stroke-width="1.07574" stroke-linecap="round"/>
<path fill-rule="evenodd" clip-rule="evenodd" d="M447.552 220.359C447.552 220.359 449.37 224.834 455.243 220.608C451.468 216.01 447.552 220.484 447.552 220.36V220.359Z" fill="#C75B00" stroke="black" stroke-width="0.86059"/>
<path fill-rule="evenodd" clip-rule="evenodd" d="M451.892 220.171C451.892 220.411 451.61 220.606 451.262 220.606C450.914 220.606 450.634 220.411 450.634 220.171C450.634 219.931 450.915 219.736 451.262 219.736C451.61 219.736 451.892 219.931 451.892 220.171Z" fill="black"/>
<path fill-rule="evenodd" clip-rule="evenodd" d="M399.531 209.974C399.531 209.974 410.669 220.689 417.875 220.573C419.185 223.717 414.603 226.642 412.769 228.04C409.1 226.992 405.785 228.231 397.268 218.914C397.792 212.974 399.662 210.207 399.531 209.974V209.974ZM414.602 185.049C416.043 181.088 418.926 177.945 421.415 177.595C420.76 174.567 426.656 161.173 443.821 156.048C444.869 162.92 436.483 169.675 436.483 169.675C436.483 169.675 461.771 165.832 466.881 160.125C466.357 162.687 461.247 178.643 434.256 178.527C444.476 187.146 430.98 194.017 425.214 191.92C435.828 184.699 422.201 180.39 414.602 185.049Z" fill="white" stroke="black" stroke-width="0.86059"/>
<path fill-rule="evenodd" clip-rule="evenodd" d="M423.249 179.462C428.359 176.55 430.193 176.55 434.386 177.132C431.373 177.481 431.373 177.598 431.373 177.598C431.373 177.598 431.11 177.948 432.945 179.461C430.849 178.996 429.014 177.948 423.249 179.461V179.462Z" fill="#CCCCCD" stroke="#CCCCCC" stroke-width="0.86059"/>
<path d="M421.28 177.595C421.28 177.595 431.368 172.82 437.003 169.559" stroke="black" stroke-width="0.86059"/>
<path fill-rule="evenodd" clip-rule="evenodd" d="M412.632 228.027C412.632 228.027 426.521 231.405 428.094 213.702C425.08 206.015 420.887 189.476 427.307 184.701C421.411 181.091 414.99 184.818 414.99 184.818C414.598 185.633 409.357 192.272 416.432 203.918C399.661 199.959 406.474 214.051 406.474 214.051C407.13 211.838 416.039 209.742 418.266 221.039C419.183 223.834 412.239 228.143 412.632 228.027V228.027Z" fill="#0000FF" stroke="black" stroke-width="0.86059"/>
<path fill-rule="evenodd" clip-rule="evenodd" d="M428.226 213.817C428.226 213.817 442.902 206.829 442.508 190.408C430.06 190.641 425.606 204.966 425.606 204.966L428.226 213.817Z" fill="#0000FF" stroke="black" stroke-width="0.86059"/>
<path fill-rule="evenodd" clip-rule="evenodd" d="M362.45 213.003C362.45 213.003 351.575 221.389 345.417 218.71C340.83 221.156 335.458 216.847 335.458 216.847C335.458 216.847 341.748 237.462 364.284 222.554C363.891 218.011 362.712 213.352 362.45 213.003Z" fill="white" stroke="black" stroke-width="0.86059"/>
<path fill-rule="evenodd" clip-rule="evenodd" d="M345.286 218.358C346.203 214.049 350.003 211.953 353.017 216.029C357.079 216.728 361.141 201.936 346.728 204.382C350.79 185.049 338.605 177.828 338.605 177.828C338.605 177.828 334.281 199.258 336.246 203.218C338.211 207.178 333.363 195.88 317.772 192.736C317.51 208.925 335.198 216.495 335.198 216.495C335.198 216.495 340.178 220.571 345.286 218.358V218.358Z" fill="#0000FF" stroke="black" stroke-width="0.86059"/>
<path d="M335.329 217.311C335.329 217.311 338.474 212.77 345.287 218.593M346.726 204.264C346.726 204.264 339.912 209.389 341.484 216.377L346.726 204.264ZM336.378 203.566C336.378 203.566 334.805 208.575 338.212 215.679L336.378 203.566Z" stroke="black" stroke-width="0.86059"/>
<path fill-rule="evenodd" clip-rule="evenodd" d="M336.639 185.863C336.639 185.746 326.287 185.863 332.446 195.18C327.86 196.461 317.64 190.521 324.715 182.601C301.523 182.135 292.09 172.236 292.09 163.153C298.903 169.441 315.15 166.879 320.916 170.722C313.84 164.898 315.282 156.863 315.282 156.863C315.282 156.863 335.067 162.104 338.604 177.71C337.425 180.738 336.901 186.096 336.639 185.862V185.863Z" fill="white" stroke="black" stroke-width="0.86059"/>
<path d="M320.723 170.318C324.541 173.771 334.352 174.803 339.331 178.647" stroke="black" stroke-width="0.86059"/>
<path fill-rule="evenodd" clip-rule="evenodd" d="M325.24 180.509C325.24 180.509 333.362 179.576 335.716 182.139C332.538 182.139 331.478 181.439 326.887 182.954C328.182 182.371 327.83 181.324 328.535 181.324C329.241 181.324 325.593 180.508 325.239 180.508L325.24 180.509Z" fill="#CCCCCD" stroke="#CCCCCC" stroke-width="0.815839"/>
<path fill-rule="evenodd" clip-rule="evenodd" d="M365.727 124.021C365.727 124.021 370.181 120.527 375.029 123.671C372.839 129.489 364.941 127.282 364.941 127.282C364.941 127.282 365.203 130.194 364.417 131.591C365.998 132.648 367.299 136.134 367.299 136.134C367.299 136.134 375.423 134.386 377.126 137.531C380.237 137.149 382.498 137.531 382.498 137.531C382.498 137.531 388.788 136.134 391.015 136.134C393.242 136.134 400.318 137.764 400.973 138.928C401.629 140.093 403.986 147.897 405.559 147.78C407.131 147.663 401.759 149.643 400.318 147.663C398.877 145.684 399.27 150.225 399.27 150.225C399.27 150.225 403.725 154.419 404.249 155.35C404.773 156.282 401.497 163.852 403.986 169.093C401.806 169.272 401.628 171.306 401.628 171.306C401.508 173.614 398.222 174.218 398.222 174.218L397.435 171.073L395.208 172.238L396.125 169.792C396.125 169.792 399.138 163.27 399.401 161.174C399.663 159.077 396.649 155.35 394.29 155.35C391.932 155.35 390.229 161.989 390.229 161.989C390.229 161.989 389.049 166.997 389.443 167.463C389.835 167.929 387.87 165.833 387.87 165.833C387.87 165.833 386.822 168.861 386.036 169.792C385.25 170.724 383.546 171.074 383.546 171.074C383.546 171.074 382.367 168.045 382.761 166.881C383.153 165.716 389.181 161.174 388.657 157.913C388.133 154.652 388.657 155.467 388.526 155.35C388.394 155.234 385.382 152.904 385.25 151.624C385.119 150.343 381.319 153.254 376.341 152.323C374.817 154.689 374.637 160.591 374.637 160.591C374.637 160.591 374.113 167.695 375.161 168.511C376.209 169.326 372.541 171.073 372.541 171.073L369.92 174.217C369.92 174.217 369.003 172.238 369.003 172.354C369.003 172.471 367.169 173.519 367.169 173.519L368.217 171.19C368.153 169.426 370.764 164.611 370.764 160.534C370.764 156.458 371.1 152.089 371.1 152.089C371.1 152.089 366.252 151.856 366.382 156.281C366.513 160.707 365.203 160.94 365.466 162.221C365.727 163.503 367.038 167.113 366.645 168.161C366.251 169.209 364.679 169.559 364.679 169.559L364.286 170.141C364.286 170.141 359.438 172.121 359.569 172.936C359.7 173.752 359.438 170.607 359.438 170.607L359.176 167.229C359.176 167.229 362.058 165.599 362.058 161.523C362.058 157.446 361.394 156.866 361.526 155.935C361.656 155.003 362.321 151.623 362.19 151.274C362.058 150.924 359.438 152.205 358.652 152.205C357.866 152.205 360.093 149.759 360.355 148.013C360.618 146.265 357.734 149.643 355.376 147.663C356.473 145.512 358.128 144.868 358.39 143.237C358.651 141.607 356.555 144.635 354.721 143.47C354.87 141.908 356.686 140.559 356.686 140.559C356.686 140.559 355.194 140.396 354.59 140.559C353.411 140.209 355.9 138.578 356.031 136.249C356.162 133.92 354.59 132.988 354.59 132.872C354.59 132.755 351.97 130.775 351.577 129.96C351.183 129.145 351.183 128.213 351.183 128.213C351.183 128.213 346.859 131.008 341.75 125.069C346.429 121.518 351.446 124.137 351.446 124.137C351.446 124.137 352.755 120.875 358.782 121.109C364.809 121.342 365.989 124.37 365.727 124.021V124.021Z" fill="#923F00" stroke="black" stroke-width="0.86059"/>
<path fill-rule="evenodd" clip-rule="evenodd" d="M398.691 184.265C398.8 184.265 409.822 184.557 409.93 189.794C410.039 195.032 406.547 193.674 406.438 193.674C406.33 193.674 398.363 192.801 398.363 192.801L398.691 184.265V184.265Z" fill="#0000FF" stroke="black" stroke-width="0.86059"/>
<path fill-rule="evenodd" clip-rule="evenodd" d="M387.992 182.809C387.992 182.809 401.742 182.712 400.978 188.047C400.214 193.381 396.722 192.314 396.722 192.314L390.066 191.829L387.992 182.809V182.809Z" fill="#FFFEFF" stroke="black" stroke-width="0.86059"/>
<path fill-rule="evenodd" clip-rule="evenodd" d="M380.247 182.228L388.213 182.809C388.213 182.809 393.013 183.391 392.796 187.465C392.577 191.539 387.885 191.635 387.885 191.635L380.137 191.248L380.247 182.228V182.228Z" fill="#0000FF" stroke="black" stroke-width="0.86059"/>
<path fill-rule="evenodd" clip-rule="evenodd" d="M361.59 184.265C361.48 184.265 350.458 184.557 350.35 189.794C350.241 195.032 353.733 193.674 353.842 193.674C353.95 193.674 361.917 192.801 361.917 192.801L361.586 184.264L361.59 184.265Z" fill="white" stroke="black" stroke-width="0.86059"/>
<path fill-rule="evenodd" clip-rule="evenodd" d="M372.281 182.809C372.281 182.809 358.532 182.712 359.296 188.047C360.06 193.381 363.552 192.314 363.552 192.314L370.208 191.829L372.281 182.809V182.809Z" fill="#0000FF" stroke="black" stroke-width="0.86059"/>
<path fill-rule="evenodd" clip-rule="evenodd" d="M380.034 182.228L372.068 182.809C372.068 182.809 367.266 183.391 367.485 187.465C367.703 191.539 372.395 191.635 372.395 191.635L380.142 191.248L380.034 182.228V182.228Z" fill="white" stroke="black" stroke-width="0.86059"/>
<path fill-rule="evenodd" clip-rule="evenodd" d="M401.362 241.117C401.362 241.117 407.09 233.614 409.502 234.417C411.613 235.043 410.005 240.849 409 241.385L401.362 241.117H401.362ZM362.098 242.458C360.29 240.225 357.677 234.061 355.265 235.758C353.154 236.383 354.762 242.19 355.768 242.726L362.098 242.458V242.458Z" fill="#5E0043" stroke="black" stroke-width="0.86059"/>
<path d="M365.892 227.617C365.892 227.617 377.054 233.729 380.715 233.888C384.376 234.046 395.984 225.95 395.984 225.95" stroke="black" stroke-width="0.86059"/>
<path fill-rule="evenodd" clip-rule="evenodd" d="M366.966 203.652L369.109 201.271L379.825 206.113L390.718 201.827L392.861 203.811L380.718 211.431L366.966 203.652V203.652Z" fill="#5E0043" stroke="black" stroke-width="0.86059"/>
<path fill-rule="evenodd" clip-rule="evenodd" d="M358.457 203.524C359.327 204.501 366.252 211.986 367.502 218.177C368.753 224.368 366.788 209.684 366.788 209.684C366.788 209.684 375.361 213.415 375.628 215.795C375.896 218.177 379.726 215.635 379.91 215.227L355.091 200.898L358.457 203.524V203.524ZM400.805 203.096C400.805 203.096 391.786 213.652 392.858 225.16C390.998 219.65 392.501 210.556 392.501 210.556L390.536 211.667C390.536 211.667 388.482 219.445 385.893 220.637C385.456 219.709 385.536 219.367 385.536 219.367C385.536 219.367 382.768 222.541 382.232 222.858C381.696 223.176 382.41 233.574 382.41 233.574C382.41 233.574 383.34 241.109 384.411 241.03C383.193 241.562 381.696 242.386 381.696 242.386L380.585 222.263L383.125 220.002C383.125 220.002 386.518 216.351 386.786 212.779C385.314 213.89 383.661 214.208 383.661 214.208C383.661 214.208 383.214 219.288 381.874 220.002C380.535 220.716 380.498 222.041 380.498 222.041L380.181 215.403L400.805 203.096V203.096Z" fill="#474747" stroke="#474747" stroke-width="1.07574" stroke-linejoin="round"/>
<path d="M380.178 215.317L381.921 247.061" stroke="black" stroke-width="1.07574" stroke-linecap="round"/>
<path d="M358.216 230.475C358.216 230.475 362.323 232.618 363.842 239.127C377.234 238.253 381.432 242.46 381.432 242.46C381.432 242.46 392.415 237.777 397.504 238.65C399.29 235.317 404.379 231.031 404.379 231.031" stroke="black" stroke-width="0.86059"/>
<path fill-rule="evenodd" clip-rule="evenodd" d="M352.612 199.362L380.182 215.396L405.006 200.554C405.006 200.554 410.184 198.014 409.738 196.188C409.291 194.363 407.506 195.077 406.612 195.395C405.719 195.712 380.628 211.506 380.628 211.506L353.93 196.506C353.93 196.506 351.966 195.95 351.608 197.061C351.25 198.171 352.344 198.807 352.611 199.363L352.612 199.362Z" fill="#B4B6B9" stroke="black" stroke-width="0.86059"/>
<path fill-rule="evenodd" clip-rule="evenodd" d="M401.913 195.201C401.913 195.201 394.859 192.54 394.859 194.846C394.859 197.153 395.059 197.39 396.19 198.868C397.322 200.348 395.326 201.294 395.326 201.294C395.326 201.294 395.058 200.643 394.659 199.637C394.26 198.632 390.467 197.923 390.134 196.739C389.802 195.556 390.933 193.663 388.67 193.426C386.407 193.19 384.211 194.255 383.746 196.562C383.28 198.869 380.352 204.252 380.352 204.252L380.751 192.006C385.719 192.323 394.948 193.288 402.046 194.019C399.917 193.722 402.845 194.137 402.778 194.787C402.578 195.32 401.846 195.379 401.913 195.201V195.201ZM376.956 192.123C375.692 192.123 369.37 192.774 367.772 193.602C366.175 194.431 370.368 195.732 369.836 196.855C369.303 197.979 369.236 200.227 367.24 199.754C365.244 199.281 358.522 196.323 358.323 195.317C358.123 194.312 356.726 194.253 356.726 194.253C356.726 194.253 376.025 191.946 376.957 192.123H376.956Z" fill="#474747" stroke="#474747" stroke-width="1.07574" stroke-linejoin="round"/>
<path d="M366.966 172.993C366.966 172.993 359.234 184.153 359.081 184.493M379.999 190.716L379.951 205.759L379.999 190.716Z" stroke="black" stroke-width="0.86059"/>
<path fill-rule="evenodd" clip-rule="evenodd" d="M381.211 172.717C381.211 172.717 384.579 176.8 384.197 177.957C385.574 178.91 387.105 182.721 387.105 182.721" fill="url(#paint3_linear)"/>
<path d="M381.211 172.717C381.211 172.717 384.579 176.8 384.197 177.957C385.574 178.91 387.105 182.721 387.105 182.721" stroke="black" stroke-width="0.86059"/>
<path d="M394.223 172.039C394.223 172.039 386.95 181.157 387.18 181.838" stroke="black" stroke-width="0.86059"/>
<path fill-rule="evenodd" clip-rule="evenodd" d="M356.97 128.68C356.806 129.19 355.879 129.387 354.9 129.121C353.921 128.854 353.262 128.225 353.426 127.716C353.591 127.206 354.518 127.008 355.497 127.275C356.475 127.541 357.135 128.171 356.97 128.68ZM359.909 128.5C360.074 129.01 361 129.208 361.979 128.941C362.958 128.674 363.617 128.045 363.453 127.536C363.288 127.026 362.361 126.828 361.382 127.095C360.404 127.361 359.744 127.991 359.909 128.5Z" fill="black"/>
<path fill-rule="evenodd" clip-rule="evenodd" d="M445.025 317.381C445.025 317.381 442.329 317.83 442.413 318.055C442.497 318.28 434.575 318.504 434.406 318.28C434.238 318.055 433.226 319.478 433.226 319.478L434.49 318.804C434.49 318.804 436.429 320.602 437.018 320.452C437.609 320.303 436.766 321.126 436.934 321.276C437.103 321.426 437.694 320.976 437.694 320.976L450.79 320.782L445.025 317.381V317.381Z" fill="#FF7000" stroke="black" stroke-width="0.86059" stroke-linejoin="round"/>
<path fill-rule="evenodd" clip-rule="evenodd" d="M449.906 321.004L439.21 321.279C439.21 321.279 436.513 323.452 436.344 323.976C436.175 324.5 438.114 324.65 438.114 324.65L438.704 326.448L440.053 325.998C440.053 325.998 449.148 327.2 457.498 325.549C461.711 324.238 462.45 322.665 459.499 321.71C456.55 320.755 449.99 321.041 449.907 321.004H449.906Z" fill="#FF7000" stroke="black" stroke-width="1.07574" stroke-linejoin="round"/>
<path fill-rule="evenodd" clip-rule="evenodd" d="M413.273 340.513L432.53 339.751L428.943 337.048L481.025 335.177L479.231 331.504L420.913 333.583L427.93 336.494L412.181 336.91L412.649 338.365L408.517 338.226C408.517 338.226 413.117 339.821 413.273 340.513V340.513Z" fill="url(#paint4_linear)" stroke="black" stroke-width="0.86059"/>
<path fill-rule="evenodd" clip-rule="evenodd" d="M434.863 245.958C433.334 245.279 426.603 244.462 419.108 248.813L419.414 264.177C419.414 264.177 430.428 258.875 435.781 260.098C435.475 255.339 435.475 249.221 434.863 245.958V245.958Z" fill="url(#paint5_linear)" stroke="black" stroke-width="0.86059"/>
<path d="M324.932 334.877L320.161 340.433M328.387 292.608L282.979 332.678L328.387 292.608ZM348.626 292.901L311.77 336.046L348.626 292.901ZM346.98 281.641L297.785 334.583L346.98 281.641ZM296.304 333.848L301.075 328.876L296.304 333.848ZM356.357 308.256L337.271 331.658L356.357 308.256ZM336.448 334.73L336.943 343.646L336.448 334.73ZM365.073 316.444L344.837 338.966L365.073 316.444ZM361.459 337.214L369.685 325.222L361.459 337.214ZM364.584 322.882L354.713 332.826L364.584 322.882ZM361.624 313.525L354.879 320.837L361.624 313.525ZM352.901 302.846C352.901 302.846 332.335 329.609 332.665 331.802L352.901 302.846ZM350.76 299.34C350.267 299.632 332.991 319.96 332.991 319.96L350.76 299.34ZM332.007 326.389L328.881 329.752L332.007 326.389Z" stroke="black" stroke-width="0.86059"/>
<path fill-rule="evenodd" clip-rule="evenodd" d="M326.141 231.014C326.141 231.014 324.747 234.906 326.141 236.852C327.534 238.799 336.29 254.543 336.29 254.543C336.29 254.543 342.262 247.997 344.451 247.82C346.641 247.643 345.645 264.804 345.645 264.804C345.645 264.804 342.063 267.812 339.874 267.635C337.684 267.458 345.247 274.357 345.048 280.195C344.849 286.034 335.097 315.047 331.514 315.578C327.932 316.108 333.106 310.27 332.907 308.678C332.708 307.086 331.713 308.147 330.917 306.378C330.121 304.608 332.111 301.955 331.713 300.186C331.314 298.418 329.524 298.771 329.325 297.532C329.126 296.293 330.519 295.94 330.32 294.526C330.121 293.11 327.932 293.463 328.13 292.225C328.33 290.987 328.529 291.518 328.33 289.217C328.13 286.918 327.733 290.81 325.543 290.987C323.354 291.164 321.562 295.587 321.562 295.587C321.562 295.587 317.184 301.071 312.806 298.594C315.393 303.547 313.402 305.671 312.407 305.847C311.412 306.023 313.203 309.74 310.815 309.916C308.427 310.092 312.606 318.231 309.82 318.939C312.806 320.177 310.417 321.769 310.417 321.769C310.417 321.769 303.518 322.279 305.043 330.261C284.742 323.903 274.791 312.936 274.99 301.792C275.19 290.647 279.17 280.563 288.922 276.848C291.709 267.648 296.485 257.742 296.485 257.742C296.485 257.742 295.689 253.673 296.286 251.019C296.883 248.365 299.67 245.712 299.67 245.712C299.67 245.712 299.271 239.343 299.47 236.159C299.67 232.974 301.062 231.558 301.262 229.79C301.461 228.021 300.665 218.998 302.654 217.406C304.645 215.814 308.426 215.991 310.417 214.929C312.407 213.868 314.994 211.922 317.582 212.099C320.169 212.276 322.358 213.868 322.358 213.868C322.358 213.868 332.11 213.868 332.707 217.229C333.305 220.59 330.717 221.829 330.717 221.829C330.717 221.829 332.11 226.605 326.139 231.028L326.141 231.014Z" fill="#8A9396" stroke="#2B2B2B" stroke-width="0.86059"/>
<path fill-rule="evenodd" clip-rule="evenodd" d="M317.481 218.757C317.793 219.27 317.082 220.15 315.893 220.722C314.703 221.295 313.485 221.344 313.173 220.83C312.861 220.318 313.571 219.438 314.761 218.865C315.952 218.292 317.169 218.244 317.481 218.757Z" fill="#CECFCF" stroke="#2B2B2B" stroke-width="0.86059"/>
<path fill-rule="evenodd" clip-rule="evenodd" d="M315.83 219.651C315.83 219.974 315.498 220.237 315.09 220.237C314.682 220.237 314.35 219.974 314.35 219.651C314.35 219.328 314.682 219.065 315.09 219.065C315.498 219.065 315.83 219.328 315.83 219.651Z" fill="black"/>
<path d="M332.494 218.873C332.494 218.873 335.081 220.495 335.69 222.118M330.382 225.506C330.382 225.506 332.798 235.099 329.908 241.726L330.382 225.506ZM331.125 221.308C331.125 221.308 335.842 226.853 335.233 233.749L331.125 221.308ZM331.582 220.09C331.734 220.09 335.537 223.065 335.385 225.093L331.582 220.09Z" stroke="#2B2B2B" stroke-width="0.537869"/>
<path d="M331.277 217.924C331.277 217.924 321.997 231.311 323.214 239.695" stroke="black" stroke-width="0.86059"/>
<path d="M331.886 217.52C331.886 217.52 319.563 224.011 317.282 245.242" stroke="#2B2B2B" stroke-width="0.537869"/>
<path d="M330.517 221.442L325.648 224.688" stroke="black" stroke-width="0.86059"/>
<path d="M312.718 246.46C312.718 246.46 319.563 221.172 331.734 217.521" stroke="#2B2B2B" stroke-width="0.537869"/>
<path fill-rule="evenodd" clip-rule="evenodd" d="M336.45 254.978C336.45 254.978 342.991 247.677 344.513 247.947C346.034 248.217 345.577 264.85 345.577 264.85C345.577 264.85 340.709 268.096 339.644 267.96C338.58 267.825 345.121 275.804 344.969 278.779C344.817 281.754 344.665 281.754 344.665 281.754C344.665 281.754 344.665 279.996 343.143 277.156C341.622 274.316 342.535 271.07 332.646 263.904C330.212 259.441 337.514 266.608 339.036 265.527C340.557 264.444 336.298 255.114 336.45 254.979V254.978Z" fill="#2B2B2B" stroke="#2B2B2B" stroke-width="0.86059"/>
<path d="M324.82 213.854C324.82 213.854 322.069 214.521 321.695 215.521C321.319 216.521 319.695 217.521 318.82 217.188C317.945 216.854 316.319 215.632 316.319 215.632" stroke="#2B2B2B" stroke-width="0.86059"/>
<path fill-rule="evenodd" clip-rule="evenodd" d="M309.194 222.409C309.194 222.409 305.069 226.076 307.069 226.521C309.069 226.965 311.194 223.632 311.194 223.632C311.194 223.632 311.194 229.299 312.944 228.409C314.694 227.52 319.82 224.298 319.82 224.298C319.82 224.298 321.57 224.187 321.945 224.298C322.32 224.41 326.695 227.742 329.57 226.521C327.946 230.298 326.07 230.743 326.07 230.743C326.07 230.743 323.07 234.188 319.194 233.41C315.319 232.632 314.319 231.188 314.319 231.188C314.319 231.188 311.069 231.41 310.069 230.076C309.069 228.743 308.694 227.965 308.694 227.965C308.694 227.965 306.818 229.632 306.318 228.854C305.818 228.076 306.318 223.521 309.194 222.409V222.409Z" fill="#2B2B2B" stroke="#2B2B2B" stroke-width="1.07574" stroke-linejoin="round"/>
<path d="M332.571 217.3C332.571 217.3 324.946 215.299 322.32 218.633C319.695 221.967 320.32 223.856 321.695 224.189" stroke="#2B2B2B" stroke-width="0.86059"/>
<path fill-rule="evenodd" clip-rule="evenodd" d="M333.747 217.11C333.747 217.909 333.104 218.557 332.309 218.557C331.515 218.557 330.872 217.909 330.872 217.11C330.872 216.31 331.516 215.663 332.309 215.663C333.103 215.663 333.747 216.31 333.747 217.11Z" fill="black"/>
<path fill-rule="evenodd" clip-rule="evenodd" d="M311.554 234.403C311.554 234.403 314.663 238.656 318.371 239.826C322.078 240.995 315.799 242.004 312.092 239.772C309.402 236.53 310.119 234.192 310.119 234.192C310.119 234.192 310.837 233.553 311.554 234.403ZM338.164 259.495C338.164 259.495 329.434 248.705 326.922 248.12C324.411 247.535 328.835 247.057 331.527 249.342C334.217 251.628 330.809 245.622 330.809 245.622L338.164 259.495V259.495Z" fill="#2B2B2B" stroke="#2B2B2B" stroke-width="0.86059"/>
<path fill-rule="evenodd" clip-rule="evenodd" d="M310.718 321.843C314.067 321.045 328.656 329.284 331.945 331.357C335.234 333.43 342.111 332.101 342.111 332.101C342.111 332.101 338.941 333.802 336.968 334.227C334.995 334.653 342.828 334.652 342.828 334.652C342.828 334.652 324.171 339.224 305.215 330.347C303.482 323.437 309.282 321.895 310.717 321.842L310.718 321.843Z" fill="#2B2B2B" stroke="#2B2B2B" stroke-width="1.07574" stroke-linejoin="round"/>
<path fill-rule="evenodd" clip-rule="evenodd" d="M332.065 262.15C332.065 262.15 329.614 261.726 328.358 260.45C327.102 259.174 325.308 256.038 323.454 254.709C321.599 253.38 312.332 248.863 308.983 249.181C305.634 249.5 304.618 248.863 304.199 248.491C303.781 248.118 302.406 248.65 302.645 250.192C302.884 251.733 300.074 255.135 301.09 256.729C302.106 258.324 306.89 264.808 307.847 265.02C308.804 265.234 308.206 268.794 308.206 268.794C308.206 268.794 312.451 272.621 313.528 272.834C314.604 273.047 315.68 273.737 315.561 274.641C315.441 275.545 310.897 280.488 310.897 280.488C310.897 280.488 305.993 282.774 305.934 284.049C305.874 285.324 307.13 287.983 311.016 288.833C314.903 289.684 325.368 288.992 325.906 288.195C326.444 287.398 327.282 282.614 326.922 282.136C326.563 281.657 323.992 280.222 322.677 280.435C321.361 280.648 320.165 281.604 320.285 281.817C320.405 282.03 318.431 282.933 318.431 282.083C318.431 281.232 322.318 277.405 322.677 277.723C323.035 278.043 328.537 278.521 329.554 280.966C330.57 283.411 330.57 285.165 333.44 284.899C336.31 284.634 340.317 282.295 340.675 277.406C341.034 272.515 337.447 269.219 336.55 268.742C335.652 268.264 332.662 266.669 332.423 265.925C332.184 265.18 331.586 262.736 332.065 262.151V262.15Z" fill="#2B2B2B" stroke="#2B2B2B" stroke-width="0.86059"/>
<path fill-rule="evenodd" clip-rule="evenodd" d="M280.34 283.735C280.34 283.735 289.608 281.609 292.001 281.662C294.393 281.715 303.422 285.436 306.053 287.721C308.685 290.007 314.066 295.428 317.594 294.95C321.122 294.471 322.138 293.833 322.138 293.833L320.762 296.172C320.762 296.172 317.893 296.863 316.458 296.544C315.022 296.226 312.212 295.428 309.402 292.983C306.591 290.538 297.921 283.948 290.566 284.425C283.21 284.903 278.966 291.335 278.966 291.335C278.966 291.335 279.025 288.199 279.324 287.508C279.622 286.817 277.769 288.996 277.769 288.996L280.34 283.734V283.735Z" fill="#2B2B2B" stroke="#2B2B2B" stroke-width="0.86059"/>
<path fill-rule="evenodd" clip-rule="evenodd" d="M314.484 290.111C314.544 290.165 316.816 290.696 320.643 290.696C324.47 290.696 326.503 289.208 326.503 289.208L326.264 287.879L326.862 286.019C326.862 286.019 329.792 288.677 329.732 289.208C329.673 289.74 328.536 289.952 328.536 289.952L328.118 288.677L327.102 289.793C327.102 289.793 321.54 293.725 318.49 293.141C315.441 292.556 312.63 290.803 313.408 290.378C314.186 289.952 314.604 290.112 314.484 290.112V290.111ZM300.97 297.076C300.97 297.076 297.622 297.023 296.126 297.661C294.631 298.299 294.094 299.096 293.077 298.989C292.061 298.882 291.283 297.713 291.582 297.236C292.001 296.491 293.974 295.535 297.742 295.801C301.51 296.066 300.97 297.076 300.97 297.076V297.076ZM312.69 305.154C312.69 304.994 312.451 300.795 310.598 299.095C308.744 297.395 306.472 297.393 305.455 297.606C304.439 297.819 309.222 299.679 309.701 300.902C310.179 302.124 311.734 305.526 311.315 306.376C310.897 307.227 310.119 303.985 307.19 303.081C304.26 302.177 300.193 302.656 301.03 303.825C301.866 304.995 305.156 303.931 306.83 306.429C308.505 308.927 309.761 311.585 309.761 311.585L310.298 309.779L311.794 309.406L311.973 305.951L312.69 305.154V305.154Z" fill="#2B2B2B" stroke="#2B2B2B" stroke-width="0.86059"/>
<path fill-rule="evenodd" clip-rule="evenodd" d="M310.299 318.758L307.249 313.336C307.249 313.336 306.293 309.882 303.721 308.925C301.15 307.968 297.742 308.128 297.682 309.297C297.622 310.466 303.183 311.955 303.542 312.593C303.901 313.231 303.722 314.293 303.243 314.346C302.765 314.4 300.313 313.55 299.057 313.815C297.801 314.08 297.084 315.516 295.23 315.091C293.376 314.666 291.822 309.403 292.539 308.871C293.257 308.34 291.163 309.829 290.746 308.446C290.326 307.065 291.343 302.759 290.626 302.228C289.908 301.696 286.44 299.836 286.38 299.464C286.32 299.092 286.559 278.309 306.113 295.53C297.742 286.707 294.453 287.664 292.898 287.611C291.762 287.611 284.167 288.195 282.254 296.806C280.341 305.417 278.068 300.049 278.068 300.049C278.068 300.049 277.65 303.769 279.683 304.832C281.715 305.895 278.726 308.978 278.726 308.978C278.726 308.978 275.078 301.059 275.617 297.603C274.899 300.367 274.959 307.225 279.563 314.719C284.945 319.768 290.028 324.445 303.542 329.708C310.658 320.034 310.299 318.865 310.299 318.758V318.758Z" fill="#2B2B2B" stroke="#2B2B2B" stroke-width="1.07574" stroke-linejoin="round"/>
<path fill-rule="evenodd" clip-rule="evenodd" d="M297.502 318.813C297.502 318.813 301.449 319.239 302.525 321.046C303.602 322.852 304.08 325.617 304.08 325.617C304.738 324.447 305.037 323.438 306.352 322.587C307.667 321.737 308.624 321.63 308.565 320.992C308.505 320.354 304.379 316.475 302.286 316.262C300.193 316.049 296.546 318.281 296.546 318.281C296.546 318.281 295.888 319.132 297.502 318.813V318.813Z" fill="#8A9396" stroke="#2B2B2B" stroke-width="1.07574" stroke-linejoin="round"/>
<path d="M306.516 327.956C306.516 327.956 316.744 332.1 333.591 332.368" stroke="#8A9396" stroke-width="1.07574" stroke-linecap="round"/>
<path d="M340.66 285.755C340.66 285.755 339.78 293.382 333.179 308.441" stroke="#2B2B2B" stroke-width="1.07574" stroke-linecap="round"/>
<path d="M339.345 290.448C339.345 290.448 337.365 295.924 331.864 300.031" stroke="#2B2B2B" stroke-width="0.86059"/>
<defs>
<linearGradient id="paint0_linear" x1="411.385" y1="180.473" x2="411.63" y2="162.495" gradientUnits="userSpaceOnUse">
<stop stop-color="#474747"/>
<stop offset="1" stop-color="#FF5500"/>
</linearGradient>
<linearGradient id="paint1_linear" x1="404.461" y1="248.077" x2="404.492" y2="258.276" gradientUnits="userSpaceOnUse">
<stop stop-color="#B50000"/>
<stop offset="1" stop-color="#FFC500"/>
</linearGradient>
<linearGradient id="paint2_linear" x1="454.69" y1="254.28" x2="473.397" y2="254.001" gradientUnits="userSpaceOnUse">
<stop stop-color="#D5DFFF"/>
<stop offset="1" stop-color="white"/>
</linearGradient>
<linearGradient id="paint3_linear" x1="407.796" y1="177.061" x2="414.498" y2="177.061" gradientUnits="userSpaceOnUse">
<stop stop-color="#474747"/>
<stop offset="1" stop-color="#FF5500"/>
</linearGradient>
<linearGradient id="paint4_linear" x1="505.195" y1="337.872" x2="502.596" y2="319.685" gradientUnits="userSpaceOnUse">
<stop stop-color="#D5DFFF"/>
<stop offset="1" stop-color="white"/>
</linearGradient>
<linearGradient id="paint5_linear" x1="459.246" y1="260.49" x2="452.242" y2="247.77" gradientUnits="userSpaceOnUse">
<stop stop-color="#D5DFFF"/>
<stop offset="1" stop-color="white"/>
</linearGradient>
</defs>
</svg>
