<svg width="512" height="512" viewBox="0 0 512 512" fill="none" xmlns="http://www.w3.org/2000/svg">
<g clip-path="url(#clip0)">
<path fill-rule="evenodd" clip-rule="evenodd" d="M0.32666 85.3413H511.671V422.114H0.32666V85.3413Z" fill="#CE382F" stroke="black" stroke-width="2.49764" stroke-miterlimit="2.613" stroke-linejoin="bevel"/>
<path fill-rule="evenodd" clip-rule="evenodd" d="M190.611 266.365L187.712 263.177L184.984 258.623L183.791 251.792L183.961 247.693L189.076 252.02L191.975 251.792L196.749 248.601L200.5 247.693L197.602 235.17L195.556 230.612L194.533 223.329L194.021 218.32L195.556 213.31L198.966 220.138L202.717 222.418L207.832 223.329L210.219 222.418L211.924 210.805L211.413 200.559L212.947 194.635L215.846 190.54V193.045L218.062 198.054L220.961 202.15L226.929 204.202L231.703 196.005L232.896 189.857L234.772 185.53L237.841 181.432L240.399 180.29L239.717 185.53L240.399 189.401L244.491 195.094L247.56 198.51L254.38 192.362L256.938 186.441L260.862 182.57L265.972 179.838H268.703L265.972 185.986L266.657 190.309L269.044 195.549L270.581 202.15L279.274 201.47L282.341 197.599L288.479 193.955L293.594 193.5L297.518 196.005L292.573 197.599L289.507 202.15V210.35L289.843 216.267L299.053 213.762L306.384 213.538L311.329 214.904L315.421 217.864L317.299 220.369L311.67 221.963L308.942 224.468L307.405 230.612L307.069 236.536L310.477 240.631L314.907 241.087L319.516 244.05L324.117 249.056L327.188 254.297L320.707 253.386L316.615 256.346L314.228 262.263L312.013 265.226L190.611 266.365Z" fill="#F8D930" stroke="black" stroke-width="2.49764" stroke-miterlimit="2.613" stroke-linejoin="bevel"/>
<path fill-rule="evenodd" clip-rule="evenodd" d="M212.777 277.978L181.233 267.728L209.708 259.076L188.395 233.348L216.528 239.041L202.717 203.064L228.293 225.379L225.565 186.897L244.15 215.815L251.311 178.244L260.691 216.267L280.468 182.795L277.739 227.428L304.338 202.15L288.822 242.226L321.389 230.613L293.594 260.669L330.426 267.273L297.518 284.351L268.194 308.718L232.044 303.253L212.777 287.997V277.978V277.978Z" fill="#F8D930" stroke="black" stroke-width="2.49764" stroke-miterlimit="2.613" stroke-linejoin="bevel"/>
<path fill-rule="evenodd" clip-rule="evenodd" d="M0.32666 284.809L39.7135 296.877L91.7177 280.255L143.551 298.699L198.284 282.077L250.117 296.877L303.827 280.255L356.513 297.785L415.678 281.163L465.807 299.606L511.671 284.809V425.985H0.32666V284.809Z" fill="#484582" stroke="black" stroke-width="2.49764" stroke-miterlimit="2.613" stroke-linejoin="bevel"/>
<path fill-rule="evenodd" clip-rule="evenodd" d="M210.049 271.375V261.584L211.413 252.248L214.993 243.137L219.086 235.17L224.883 228.567L231.192 222.419L238.182 218.32L244.491 216.268H253.698L260.691 216.726L268.194 220.369L275.866 225.379L282.005 233.118L286.606 239.496L290.357 247.694L292.915 256.116L294.108 262.264L294.452 267.728L294.108 278.892L276.717 295.511L243.638 297.105L215.846 285.492L210.049 271.375V271.375Z" fill="#F8D930" stroke="black" stroke-width="2.49764" stroke-miterlimit="2.613" stroke-linejoin="bevel"/>
<path fill-rule="evenodd" clip-rule="evenodd" d="M0.32666 265.457C3.90728 269.781 22.3219 290.046 41.4185 289.591C61.8792 288.911 68.6995 264.543 92.5703 265.002C111.326 265.002 123.432 290.049 146.45 291.185C168.616 292.099 171.514 265.457 198.625 265.457C221.643 265.457 230.85 291.412 249.094 291.185C267 290.726 279.104 265.002 304.848 265.457C332.64 265.457 335.027 291.185 357.025 291.64C378.167 292.099 387.204 266.137 415.335 266.137C440.061 266.137 450.803 293.693 463.247 293.92C483.026 293.92 502.466 276.612 511.669 264.999V286.172C497.858 302.567 479.957 308.945 462.395 308.945C440.397 308.945 436.646 285.264 414.994 284.35C392.826 283.215 380.893 308.945 357.022 308.945C332.638 308.945 325.99 283.212 304.845 282.756C283.023 284.123 277.564 308.945 248.581 307.804C225.562 307.352 214.65 283.215 198.963 284.35C181.745 285.037 170.491 309.853 146.959 308.49C118.144 307.124 112.688 284.809 91.5472 284.35C72.7916 283.898 59.3216 308.718 42.4416 308.49C24.8795 307.804 1.00868 287.086 0.497166 284.35C0.156154 282.529 0.497166 271.83 0.32666 265.457V265.457Z" fill="white" stroke="black" stroke-width="2.49764" stroke-miterlimit="2.613" stroke-linejoin="bevel"/>
<path fill-rule="evenodd" clip-rule="evenodd" d="M0.32666 308.49C3.90728 312.813 22.3219 332.851 41.4185 332.402C61.8792 331.944 68.6995 307.576 92.5703 308.035C111.326 308.035 123.432 332.854 146.45 333.996C168.616 335.131 171.514 308.493 198.625 308.493C221.643 308.493 230.85 334.448 249.094 333.996C267 333.538 279.104 308.035 304.848 308.493C332.64 308.493 335.027 333.996 357.025 334.448C378.167 335.135 387.204 309.173 415.335 309.173C440.061 309.173 450.803 336.501 463.247 336.729C483.026 336.729 502.466 319.42 511.669 307.807C511.669 314.638 511.503 322.836 511.669 328.531C497.858 344.695 479.957 351.757 462.395 351.757C440.397 351.757 436.646 328.304 414.994 327.168C392.826 326.254 380.893 351.757 357.022 351.757C332.638 351.757 325.99 326.254 304.845 325.574C283.023 327.168 277.564 351.757 248.581 350.849C225.562 350.163 214.65 326.254 198.963 327.168C181.745 327.848 170.491 352.895 146.959 351.302C118.144 350.166 112.688 327.62 91.5472 327.168C72.7916 326.71 59.3216 351.757 42.4416 351.302C24.8795 350.849 1.00868 329.897 0.497166 327.396C0.156154 325.34 0.497166 314.866 0.32666 308.49Z" fill="white" stroke="black" stroke-width="2.49764" stroke-miterlimit="2.613" stroke-linejoin="bevel"/>
<path fill-rule="evenodd" clip-rule="evenodd" d="M0.32666 352.437C3.90728 356.988 22.3219 377.026 41.4185 376.798C61.8792 376.112 68.6995 351.523 92.5703 352.21C111.326 352.21 123.432 377.257 146.45 378.392C168.616 379.306 171.514 352.659 198.625 352.659C221.643 352.659 230.85 378.62 249.094 378.392C267 377.712 279.104 352.21 304.848 352.659C332.64 352.659 335.027 378.392 357.025 378.848C378.167 379.306 387.204 353.114 415.335 353.114C440.061 353.114 450.803 380.669 463.247 380.897C483.026 380.897 502.466 363.588 511.669 351.976V372.7C497.858 388.863 479.957 395.925 462.395 395.925C440.397 395.925 436.646 372.472 414.994 371.33C392.826 370.423 380.893 395.925 357.022 395.925C332.638 395.925 325.99 370.423 304.845 369.964C283.023 371.33 277.564 395.925 248.581 395.011C225.562 394.332 214.65 370.423 198.963 371.33C181.745 372.244 170.491 397.292 146.959 395.47C118.144 394.335 112.688 372.017 91.5472 371.33C72.7916 371.103 59.3216 395.925 42.4416 395.47C24.8795 395.011 1.00868 374.297 0.497166 371.33C0.156154 369.74 0.497166 359.041 0.32666 352.437Z" fill="white" stroke="black" stroke-width="2.49764" stroke-miterlimit="2.613" stroke-linejoin="bevel"/>
<path fill-rule="evenodd" clip-rule="evenodd" d="M242.956 110.389L238.523 106.287L232.555 102.875L218.403 104.921L205.445 108.336L192.146 112.893L185.666 116.537L186.86 118.586L198.625 116.992L209.367 114.943L219.086 116.537L225.224 118.131L231.191 120.635L235.113 125.645L237.841 131.79L241.592 141.356L254.039 123.595L242.956 110.389V110.389Z" fill="#F8D930" stroke="black" stroke-width="2.49764" stroke-miterlimit="2.613" stroke-linejoin="bevel"/>
<path fill-rule="evenodd" clip-rule="evenodd" d="M236.989 135.205L227.952 133.842L224.883 131.338L223.348 129.285L220.791 126.78L217.38 126.328L213.8 128.15L211.754 131.11L206.809 132.701L202.717 134.525L199.477 138.169L199.648 139.99L203.569 138.169L208.003 138.393L212.095 137.941L215.505 141.584L218.403 143.406L221.814 144.772L226.758 149.782L232.044 155.019L237.841 157.523L244.15 159.573L251.652 161.164L261.712 157.979L270.917 154.563L277.739 150.92L282.004 148.415L286.092 147.505L302.46 146.818L303.997 145.455L291.38 143.406H290.357L303.145 141.357L309.626 137.941L308.942 135.205L298.202 134.75L288.479 136.799L282.341 135.888L269.723 133.159H262.905L236.989 135.205V135.205Z" fill="#F8D930" stroke="black" stroke-width="2.49764" stroke-miterlimit="2.613" stroke-linejoin="bevel"/>
<path fill-rule="evenodd" clip-rule="evenodd" d="M240.058 142.719L241.251 137.941L244.832 131.337L250.97 123.14L256.426 116.992L264.443 109.93L273.989 105.831L282.005 103.327L291.38 102.875H300.931L308.599 102.191H316.956L320.366 104.238L318.493 106.287L308.09 106.973L302.461 107.425L304.339 108.336L316.101 107.884L313.034 110.389L307.069 112.893H295.643H296.666L306.726 114.487L300.587 116.992L294.452 117.444L288.479 116.992L294.452 118.586L290.7 120.635L288.823 122.002L286.776 121.091L285.583 122.457H283.878L282.341 121.546L280.641 123.14L278.59 123.595L276.889 122.457L275.523 124.275L273.989 124.731L272.115 124.506L270.581 126.328L269.044 127.466L267.509 126.78L265.636 130.427L264.099 131.337L262.392 131.565L261.542 135.205L260.348 136.575L258.304 137.255L256.767 140.446L255.403 141.356L254.039 142.267L248.242 144.772L243.127 143.861L240.058 142.719V142.719Z" fill="#F8D930" stroke="black" stroke-width="2.49764" stroke-miterlimit="2.613" stroke-linejoin="bevel"/>
<path fill-rule="evenodd" clip-rule="evenodd" d="M217.38 132.248C217.38 132.931 216.698 133.614 215.846 133.614C214.993 133.614 214.311 132.931 214.311 132.248C214.311 131.337 214.993 130.654 215.846 130.654C216.698 130.654 217.38 131.337 217.38 132.248Z" fill="black" stroke="black" stroke-width="2.49764" stroke-miterlimit="2.613" stroke-linejoin="bevel"/>
</g>
<defs>
<clipPath id="clip0">
<rect y="85" width="512" height="341.33" fill="white"/>
</clipPath>
</defs>
</svg>
