<svg width="512" height="512" viewBox="0 0 512 512" fill="none" xmlns="http://www.w3.org/2000/svg">
<g clip-path="url(#clip0)">
<path d="M0 85H512V426.33H0V85Z" fill="#3E5EB9"/>
<path d="M0 149H512V362.331H0V149Z" fill="#FFD900"/>
<path d="M0 170.333H512V340.998H0V170.333Z" fill="#B10C0C"/>
<path d="M420.565 216.651L399.842 223.965L420.565 231.279L441.288 223.965L420.565 216.651Z" fill="white" stroke="black" stroke-width="1.512"/>
<path d="M406.932 221.532H107.482C106.019 221.532 104.832 222.623 104.832 223.97C104.832 225.316 106.019 226.408 107.482 226.408H406.932C408.396 226.408 409.583 225.316 409.583 223.97C409.583 222.623 408.396 221.532 406.932 221.532Z" fill="#FFD900" stroke="black" stroke-width="1.512"/>
<path d="M402.295 226.404C403.513 226.404 404.735 225.185 404.735 223.966C404.735 222.748 403.514 221.528 402.296 221.528L402.295 226.404ZM399.855 226.404C401.073 226.404 402.295 225.185 402.295 223.966C402.295 222.748 401.073 221.528 399.856 221.528L399.855 226.404ZM397.414 226.404C398.632 226.404 399.854 225.185 399.854 223.966C399.854 222.748 398.633 221.528 397.415 221.528" fill="#FFD900"/>
<path d="M397.414 226.404C398.632 226.404 399.854 225.185 399.854 223.966C399.854 222.748 398.633 221.528 397.415 221.528M402.295 226.404C403.513 226.404 404.735 225.185 404.735 223.966C404.735 222.748 403.514 221.528 402.296 221.528L402.295 226.404ZM399.855 226.404C401.073 226.404 402.295 225.185 402.295 223.966C402.295 222.748 401.073 221.528 399.856 221.528L399.855 226.404Z" stroke="black" stroke-width="1.512"/>
<path d="M461.899 252.013H54.644C52.6533 252.013 51.0396 253.65 51.0396 255.67C51.0396 257.689 52.6533 259.327 54.644 259.327H461.899C463.89 259.327 465.504 257.689 465.504 255.67C465.504 253.65 463.89 252.013 461.899 252.013Z" fill="#FFD900" stroke="black" stroke-width="1.62"/>
<path d="M377.899 255.665C353.518 280.043 321.009 328.804 255.991 328.804C199.101 328.804 158.472 280.044 134.084 255.665C158.465 231.282 199.098 182.521 255.991 182.521C321.005 182.521 353.51 231.282 377.899 255.665Z" fill="white" stroke="black" stroke-width="1.512"/>
<path d="M247.484 207.964C253.97 215.259 248.554 218.201 255.42 218.679C262.66 219.211 258.555 226.388 264.646 226.638C268.904 226.824 264.221 243.833 268.319 249.446C272.495 255.298 275.992 251.161 276.065 255.388C276.138 259.76 264.701 259.319 264.501 272.787C264.165 280.549 254.85 281.045 254.405 286.04C253.852 290.737 272.758 293.374 272.505 297.579C272.246 301.772 252.092 301.116 251.215 305.897C250.765 310.192 278.902 313.712 281.165 326.132C276.966 327.505 265.02 328.797 255.992 328.804C199.112 328.845 158.473 280.04 134.093 255.661C158.474 231.278 199.107 182.517 256.001 182.517C256.001 182.517 239.114 197.947 247.492 207.959L247.484 207.964Z" fill="black"/>
<path d="M182.556 249.16V229.656V249.16ZM194.375 229.656V249.16V229.656ZM206.202 229.656V249.16Z" fill="black"/>
<path d="M206.202 229.656V249.16M182.556 249.16V229.656V249.16ZM194.375 229.656V249.16V229.656Z" stroke="white" stroke-width="10.3905"/>
<path d="M436.352 252.764C432.659 259.16 439.186 250.636 455.113 261.345C458.064 263.334 460.643 268.589 460.643 272.233C459.894 271.731 459.337 270.616 458.512 269.892C457.357 271.049 459.615 276.358 459.946 278.866C457.456 277.473 457.695 276.813 456.868 275.1C457.033 277.17 456.441 282.871 457.431 285.067C455.469 284.506 455.6 282.927 454.575 282.61C455.272 285.094 453.968 287.799 454.313 290.593C453.167 289.458 451.945 288.569 451.412 288.11C451.323 289.44 449.206 292.936 449.159 294.194C448.186 293.607 447.921 292.69 447.759 292.073C446.55 293.592 442.252 299.205 441.976 300.917C438.664 297.992 430.181 290.869 429.076 287.088C428.1 289.234 426.687 289.958 423.894 291.525C422.791 285.533 418.663 278.798 420.871 273.662C419.306 274.589 418.019 275.517 416.456 276.658C417.937 267.98 425.49 257.803 436.355 252.764H436.352Z" fill="#3D5DA7" stroke="black" stroke-width="1.2825"/>
<path d="M422.579 284.439C424.112 281.374 425.525 280.402 426.516 278.428C428.266 274.959 428.515 272.199 430.041 272.604C431.565 273.008 431.564 274.429 429.588 277.84C427.613 281.251 426.673 281.98 422.579 284.439V284.439ZM432.947 291.743C432.75 289.409 433.427 288.435 433.304 286.932C433.093 284.287 432.012 282.473 433.418 282.344C434.824 282.215 435.482 283.117 435.485 285.782C435.49 288.447 435.078 289.147 432.948 291.744L432.947 291.743ZM440.815 296.317C440.2 293.059 440.661 291.614 440.267 289.515C439.583 285.822 438.229 283.391 439.531 283.053C440.834 282.715 441.622 283.91 442.114 287.655C442.608 291.4 442.347 292.429 440.815 296.317ZM448.998 273.491C447.077 272.032 445.955 271.934 444.716 270.997C442.533 269.353 441.429 267.592 440.727 268.466C440.025 269.34 440.523 270.296 442.81 271.813C445.097 273.33 445.872 273.45 448.999 273.491H448.998ZM447.642 284.302C446.629 282.199 445.563 281.666 444.907 280.312C443.75 277.934 443.748 275.877 442.492 276.404C441.236 276.931 441.135 278.008 442.478 280.31C443.821 282.612 444.525 283.029 447.642 284.302Z" fill="#A70000"/>
<path d="M68.9345 258.924C68.728 257.062 69.1268 256.839 67.9805 255.434C69.649 256.132 69.7122 257.987 71.7408 256.671C72.4855 256.285 72.8103 256.273 71.9052 254.204C74.0204 254.302 80.9472 256.677 82.0565 256.732C84.9692 256.866 90.286 253.672 93.9764 257.599C97.5189 261.18 96.3362 264.896 96.3362 269.855C94.9128 269.173 95.5989 268.836 94.0885 267.063C95.2206 271.398 94.0282 279.212 94.0282 283.809C93.4468 282.701 93.5321 283.181 92.9638 282.034C91.4534 286.229 89.6432 287.093 89.6432 292.052C89.0982 290.108 89.6244 290.518 89.018 289.495C87.5502 292.681 77.7028 295.403 81.4973 298.614C78.0726 296.606 76.5707 296.817 75.0176 295.011C74.348 295.443 73.8167 296.26 73.1943 297.38C67.1726 294.61 69.3259 288.634 64.6081 284.642C63.7917 286.315 64.1638 286.073 63.2814 288.797C62.3263 285.013 62.0652 282.609 60.9911 279.827C60.0644 281.369 60.1469 280.778 58.4641 283.109C57.7678 278.499 56.6346 277.412 57.0828 274.362C55.2942 275.624 56.465 275.113 54.677 276.666C56.3712 264.856 63.6865 256.129 68.9362 258.924L68.9345 258.924Z" fill="#3D5DA7" stroke="black" stroke-width="1.6005"/>
<path d="M61.5259 278.201C63.0778 274.399 64.4761 273.205 65.4791 270.757C67.2495 266.454 67.5379 263.014 69.025 263.539C70.5126 264.064 70.4887 265.836 68.4987 270.063C66.5088 274.291 65.5775 275.187 61.5259 278.2V278.201ZM67.4002 287.716C68.0226 284.307 69.0039 283.065 69.4073 280.87C70.1235 277.01 69.7241 274.134 71.1065 274.286C72.4889 274.438 72.8013 275.895 71.8814 279.735C70.9615 283.576 70.3266 284.485 67.3997 287.716H67.4002ZM74.4266 294.329C74.6018 291.024 75.3766 289.734 75.4927 287.605C75.7026 283.861 74.9818 281.181 76.2999 281.165C77.618 281.15 78.0879 282.496 77.684 286.245C77.2801 289.994 76.7926 290.929 74.4266 294.329ZM89.5146 272.714C86.6298 269.84 84.8856 269.303 83.0242 267.455C79.7457 264.209 78.1619 261.161 76.9945 262.241C75.8272 263.322 76.5298 264.941 79.9812 268.03C83.4332 271.119 84.6336 271.57 89.5146 272.714V272.714ZM87.7568 283.825C85.8777 280.939 84.4987 280.191 83.2853 278.334C81.1463 275.071 80.4101 272.267 79.1978 272.962C77.9844 273.657 78.2558 275.121 80.5746 278.285C82.8928 281.447 83.8252 282.029 87.7568 283.826V283.825Z" fill="#A70000"/>
<path d="M216.576 195.505C213.198 202.037 222.489 193.333 237.054 204.268C239.754 206.3 243.623 214.326 243.623 218.047C240.522 217.387 235.03 214.326 235.03 214.326C235.03 214.326 241.474 220.781 241.474 228.222C239.198 226.799 238.059 227.012 237.302 225.264C237.302 227.673 239.327 229.208 239.327 232.929C237.942 231.816 236.46 230.828 234.901 229.976C237.049 233.697 230.987 240.914 234.021 243.323C228.715 242.556 223.286 239.166 221.138 235.446C219.999 236.212 219.876 237.417 219.832 238.701C219.999 238.841 211.755 232.582 212.512 230.178C211.406 231.73 211.251 232.582 210.998 234.331C207.97 231.344 205.194 228.358 204.184 224.496C202.838 226.244 202.754 226.244 201.408 227.993C200.398 221.874 200.398 222.092 202.417 216.848C200.987 217.795 199.81 218.742 198.379 219.908C199.733 211.046 206.641 200.654 216.577 195.508L216.576 195.505Z" fill="#3D5DA7" stroke="black" stroke-width="1.239"/>
<path d="M208.247 227.419C208.788 222.918 209.964 221.223 210.316 218.324C210.943 213.226 210.199 209.5 212.005 209.595C213.812 209.689 214.332 211.569 213.439 216.657C212.546 221.743 211.793 222.979 208.247 227.42V227.419ZM217.677 235.663C217.311 231.865 218.012 230.249 217.779 227.802C217.378 223.498 216.048 220.582 217.623 220.314C219.197 220.046 219.994 221.49 220.163 225.836C220.333 230.182 219.912 231.34 217.676 235.663H217.677ZM232.397 242.387C230.796 239.1 229.42 238.121 228.387 236.006C226.562 232.289 226.18 229.253 224.772 229.803C223.364 230.353 223.442 231.923 225.476 235.562C227.509 239.2 228.428 239.943 232.397 242.387V242.387ZM237.491 212.956C233.414 210.809 231.32 210.782 228.693 209.403C224.066 206.985 221.373 204.253 220.417 205.757C219.46 207.261 220.737 208.756 225.507 210.954C230.277 213.152 231.742 213.256 237.492 212.956H237.491ZM238.984 225.252C236.016 222.783 234.26 222.419 232.345 220.83C228.972 218.043 227.294 215.304 226.167 216.414C225.04 217.524 225.793 218.99 229.333 221.617C232.874 224.243 234.085 224.569 238.984 225.252V225.252Z" fill="#A70000"/>
</g>
<defs>
<clipPath id="clip0">
<rect y="85" width="512" height="341.33" fill="white"/>
</clipPath>
</defs>
</svg>
