<?xml version="1.0" encoding="iso-8859-1"?>
<svg
  xmlns="http://www.w3.org/2000/svg"
  xmlns:xlink="http://www.w3.org/1999/xlink" version="1.1" id="Capa_1" x="0px" y="0px" viewBox="0 0 512 512" style="enable-background:new 0 0 512 512;" xml:space="preserve">
  <path d="M512 85.3311H0V426.668H512V85.3311Z" fill="#ffffff"/>
  <path d="M237.013 285.792H266.676C267.005 274.367 269.312 267.335 277.662 259.865C292.274 246.352 304.359 236.244 304.359 217.238C304.359 189.113 285.572 173.842 254.261 173.842C225.807 173.842 203.724 187.685 203.285 219.765H237.672C238.001 206.911 245.802 201.637 254.261 201.637C264.588 201.637 270.082 207.13 270.082 218.776C270.082 228.444 263.27 235.695 253.053 244.264C240.858 254.701 237.013 266.347 237.013 285.792ZM252.284 301.283C240.858 301.283 233.167 309.083 233.167 319.301C233.167 329.518 240.858 337.318 252.284 337.318C263.709 337.318 271.4 329.518 271.4 319.301C271.4 309.083 263.709 301.283 252.284 301.283Z" fill="171E29"/>
</svg>
