<svg width="512" height="512" viewBox="0 0 512 512" fill="none" xmlns="http://www.w3.org/2000/svg">
<g clip-path="url(#clip0)">
<path fill-rule="evenodd" clip-rule="evenodd" d="M0.0012207 85H512.004V426.33H0.0012207V85Z" fill="#3A7DCE"/>
<path d="M147.865 245.232C145.555 241.033 145.555 241.033 145.555 236.835C144.4 236.835 144.184 237.032 143.516 236.867C142.848 236.704 142.596 240.739 140.43 239.951C140.07 239.557 141.983 236.639 139.907 235.426C139.239 235.03 140.07 232.636 139.78 231.586C139.78 231.586 137.146 232.832 135.161 228.438C134.186 227.289 132.851 229.487 132.851 229.487C132.851 229.487 133.428 230.832 132.382 231.16C130.902 230.176 129.819 230.692 127.942 229.339C126.066 227.986 128.34 226.436 124.766 225.288C127.076 220.04 127.076 221.089 132.851 218.99C129.386 216.89 129.386 216.89 127.077 213.741C123.612 212.692 122.457 211.642 118.992 209.543C114.372 204.294 112.062 193.798 112.062 186.45C114.986 183.989 118.992 194.847 124.767 197.996L132.852 201.145C137.472 203.245 138.627 205.343 142.092 207.443L152.487 210.592C157.107 213.741 159.417 217.94 162.882 218.99C166.635 218.99 167.359 217.024 168.562 216.902C175.352 216.586 178.818 215.791 180.171 213.938C181.542 212.462 184.826 214.79 194.066 211.642L192.911 207.442C192.911 207.442 195.366 205.606 198.686 206.393C198.596 204.474 198.378 199.357 201.65 197.049C199.663 195.155 200.996 193.797 200.996 193.797C200.996 193.797 202.837 192.189 203.053 191.337C202.08 186.711 203.898 186.64 204.306 185.279C204.714 183.919 202.735 184.385 203.293 182.509C203.85 180.633 207.195 180.187 207.643 178.642C208.093 177.096 206.69 176.321 206.771 175.952C207.492 174.476 206.88 170.999 206.771 169.654C212.979 168.145 215.001 163.553 217.166 165.456C218.321 159.157 219.476 157.058 226.406 157.058C227.381 155.123 223.878 153.482 225.251 152.86C227.561 152.597 229.329 152.728 232.037 155.91C232.892 156.918 233.047 154.434 233.913 154.172C234.779 153.909 236.853 153.905 237.161 152.662C237.486 151.383 237.956 149.71 239.111 147.611C240.085 145.905 240.843 148.267 241.709 151.613C246.582 151.777 257.59 152.761 262.209 153.909C265.674 154.729 267.984 153.089 271.305 152.761C273.759 154.992 276.069 153.318 277.368 158.075C279.202 160.642 282.204 158.305 282.855 159.059C286.717 168.736 299.999 162.208 301.009 162.372C302.704 162.372 304.776 166.699 306.111 166.592C308.282 166.26 307.668 164.914 309.562 165.456C309.057 169.097 313.281 173.295 313.281 176.018C313.281 176.018 314.308 176.478 315.261 175.669C316.213 174.863 317.088 172.787 317.936 172.836C319.957 173.099 320.776 173.335 323.106 173.705C329.368 175.649 332.558 176.088 334.99 177.085C336.122 178.967 337.218 179.93 339.512 179.578C341.407 180.735 340.025 182.251 341.144 182.349C343.454 181.299 344.211 180.151 346.521 181.201C348.831 182.251 351.141 184.351 352.296 186.45C352.296 187.499 351.141 191.698 352.296 197.996C352.874 200.096 353.154 201.76 355.635 205.361C354.975 209.059 358.757 215.283 358.757 216.858C358.757 218.956 356.916 220.04 355.761 222.138C360.381 225.288 355.761 230.536 353.451 233.685C370.776 236.834 362.691 243.132 376.551 239.983C373.086 247.331 374.313 246.741 377.778 254.089C370.848 258.288 377.634 259.567 373.014 264.815C372.726 265.143 375.756 269.375 380.016 269.375C378.861 277.772 375.396 274.623 376.551 287.219C367.455 287.056 371.136 296.634 365.001 295.616C365.361 301.62 368.502 302.144 367.311 308.212C362.691 309.262 362.691 309.262 360.381 312.411L356.916 311.361C355.761 316.61 353.451 317.659 356.916 322.908C356.916 322.908 352.44 323.039 351.141 322.908C351.033 324.713 353.127 325.205 353.451 327.107C353.271 327.861 346.881 331.174 341.901 331.306C340.602 333.897 345.366 336.653 345.078 337.965C339.663 338.916 337.281 344.951 337.281 344.951C337.281 344.951 340.06 345.968 339.591 347.051C338.112 346.066 337.281 346.001 334.971 346.001C333.816 346.264 331.002 345.937 328.302 350.077C325.34 350.965 323.942 350.644 321.695 353.344C320.7 350.772 319.269 353.369 317.519 354.367C315.771 355.367 313.416 357.851 313.099 357.745C313.172 357.023 314.182 354.398 314.182 354.398L308.407 355.448L307.696 355.513C307.242 355.554 307.363 352.449 306.269 352.562C305.175 352.675 302.043 356.466 300.976 356.585C299.911 356.704 299.574 355.378 298.655 355.494C297.737 355.61 295.947 359.494 295.296 359.596C294.646 359.7 292.067 357.236 289.857 357.58C278.487 361.222 276.681 350.396 274.914 356.498C272.532 355.35 272.944 356.016 270.524 356.592C268.979 356.954 268.839 354.737 267.465 354.771C264.717 354.842 264.862 357.204 263.364 356.498C262.137 351.578 254.737 352.462 254.016 350.364C253.429 348.174 257.222 348.184 258.448 346.701C259.386 344.561 257.469 343.748 261.275 341.683C266.235 338.634 263.384 337.484 264.253 335.193C265.809 331.883 265.818 331.076 264.519 328.157C264.519 328.157 260.656 318.709 259.899 318.709C257.589 318.119 257.589 322.186 254.196 323.302C247.266 325.401 235.032 317.987 232.902 317.987C230.954 318.021 221.928 319.93 222.268 315.839C220.919 319.817 215.956 316.774 215.65 316.774C211.03 316.774 212.799 320.021 209.694 319.89C208.286 319.463 194.067 318.709 194.067 318.709V320.809L184.827 316.609L176.742 314.511C169.812 312.411 173.277 307.163 161.727 310.311V304.014H155.952C158.262 291.417 155.952 297.716 154.797 286.169L150.177 287.219C145.557 281.544 156.601 282.626 146.712 278.822C146.712 278.822 146.892 272.556 144.402 274.622C143.897 274.885 145.557 277.772 145.557 277.772C136.317 276.722 134.007 274.622 134.007 266.225C134.007 266.225 141.623 267.21 140.937 266.225C139.854 264.651 138.447 254.417 138.699 253.727C138.591 252.349 145.774 248.873 144.384 245.559C145.269 245.263 147.867 245.232 147.867 245.232" fill="white"/>
<path d="M459.662 287.171C459.293 287.91 459.359 288.648 459.74 289.175C460.426 288.261 459.847 287.839 459.662 287.171Z" stroke="white" stroke-width="8.23608" stroke-linecap="round" stroke-linejoin="round"/>
<path d="M162.632 204.292C162.632 204.292 160.695 204.081 161.13 205.592C161.763 204.432 162.593 204.363 162.632 204.292ZM163.067 200.779C162 200.814 160.695 200.639 161.13 202.149C161.763 200.989 163.028 200.849 163.067 200.779ZM170.357 220.911C170.357 220.911 172.018 220.806 171.583 222.317C170.95 221.157 170.398 220.982 170.357 220.911Z" stroke="white" stroke-width="7.71973" stroke-linejoin="round"/>
</g>
<defs>
<clipPath id="clip0">
<rect y="85" width="512" height="341.33" fill="white"/>
</clipPath>
</defs>
</svg>
